<svg width="1388" height="400" viewBox="0 0 1388 400" fill="none" xmlns="http://www.w3.org/2000/svg">
<g opacity="0.1">
<path d="M685.011 285.449V134.939H637.73V99.1039H685.011V61.3823C685.011 49.0599 688.354 39.378 695.04 32.3366C701.965 25.0438 711.039 21.3973 722.263 21.3973H765.245V57.2329H735.874C729.188 57.2329 725.844 61.0051 725.844 68.5494V99.1039H801.422V134.939H725.844V285.449H685.011ZM801.422 285.449V99.1039H842.256V285.449H801.422ZM821.839 76.8481C814.198 76.8481 807.75 74.2076 802.497 68.9266C797.244 63.6456 794.617 56.7299 794.617 48.1797C794.617 39.8809 797.244 33.091 802.497 27.81C807.75 22.529 814.198 19.8885 821.839 19.8885C829.719 19.8885 836.167 22.529 841.181 27.81C846.435 33.091 849.062 39.8809 849.062 48.1797C849.062 56.7299 846.435 63.6456 841.181 68.9266C836.167 74.2076 829.719 76.8481 821.839 76.8481Z" fill="white"/>
<path d="M872.129 285.449V99.1039H912.604V125.132H918.693C921.797 118.09 927.409 111.426 935.528 105.139C943.647 98.8524 955.945 95.709 972.422 95.709C986.033 95.709 998.092 98.9782 1008.6 105.517C1019.11 112.055 1027.22 121.108 1032.96 132.676C1038.93 144.244 1041.91 157.95 1041.91 173.793V285.449H1000.72V177.188C1000.72 162.099 997.137 150.908 989.973 143.615C983.048 136.071 973.138 132.299 960.243 132.299C945.677 132.299 934.215 137.454 925.857 147.765C917.499 157.824 913.32 172.284 913.32 191.145V285.449H872.129Z" fill="white"/>
<path d="M1070.11 285.449V99.1039H1111.3V285.449H1070.11ZM1090.53 75.3393C1083.13 75.3393 1076.68 72.8245 1071.19 67.795C1065.93 62.5139 1063.31 55.5983 1063.31 47.0481C1063.31 38.4978 1065.93 31.7079 1071.19 26.6784C1076.68 21.3973 1083.13 18.7568 1090.53 18.7568C1098.41 18.7568 1104.86 21.3973 1109.87 26.6784C1115.12 31.7079 1117.75 38.4978 1117.75 47.0481C1117.75 55.5983 1115.12 62.5139 1109.87 67.795C1104.86 72.8245 1098.41 75.3393 1090.53 75.3393Z" fill="white"/>
<path d="M1141.12 285.449V21.3973H1182.31V285.449H1141.12Z" fill="white"/>
<path d="M1295.95 290.73C1278.27 290.73 1262.39 286.958 1248.31 279.413C1234.46 271.618 1223.47 260.678 1215.35 246.596C1207.47 232.261 1203.53 215.161 1203.53 195.294V189.259C1203.53 169.392 1207.47 152.291 1215.35 137.957C1223.47 123.623 1234.46 112.684 1248.31 105.139C1262.39 97.595 1278.27 93.8229 1295.95 93.8229C1313.62 93.8229 1329.38 97.595 1343.23 105.139C1357.08 112.684 1367.94 123.623 1375.82 137.957C1383.94 152.291 1388 169.392 1388 189.259V195.294C1388 215.161 1383.94 232.261 1375.82 246.596C1367.94 260.678 1357.08 271.618 1343.23 279.413C1329.38 286.958 1313.62 290.73 1295.95 290.73ZM1295.95 252.254C1310.99 252.254 1323.29 247.224 1332.84 237.165C1342.39 226.854 1347.17 212.52 1347.17 194.162V190.39C1347.17 172.032 1342.39 157.824 1332.84 147.765C1323.29 137.454 1310.99 132.299 1295.95 132.299C1280.9 132.299 1268.6 137.454 1259.05 147.765C1249.5 157.824 1244.72 172.032 1244.72 190.39V194.162C1244.72 212.52 1249.5 226.854 1259.05 237.165C1268.6 247.224 1280.9 252.254 1295.95 252.254Z" fill="white"/>
<path d="M298.169 176.126C299.219 179.24 304.286 183.103 307.337 184.997C331.559 200.033 319.884 254.708 301.325 271.36L300.679 273.052C300.116 274.462 299.667 275.181 298.365 276.951L296.501 276.589C283.871 263.695 257.027 203.036 282.539 194.94L283.47 192.417C286.097 186.324 291.753 179.028 296.426 175.582L298.169 176.126Z" fill="white"/>
<path d="M482.325 88.9926C498.98 81.339 504.523 78.8535 515.345 95.8381C523.898 112.254 525.048 118.933 524.708 136.896C522.033 139.812 519.481 142.093 518.065 145.707L518.742 146.81C521.422 145.216 522.362 144.462 525.354 143.727C527.533 146.639 527.138 154.264 526.557 157.735C523.746 174.49 512.56 185.347 499.188 194.759L497.73 195.787C504.928 192.748 517.375 187.9 523.521 183.894C519.219 200.689 514.95 209.126 499.369 220.162C494.644 223.504 486.087 224.539 481.484 228.806C485.222 228.826 485.852 227.692 488.908 227.325C492.563 226.885 497.743 227.074 501.503 227.158C494.784 233.81 484.149 244.837 474.314 246.048C470.797 249.589 468.139 252.857 463.223 254.178L460.668 255.402C434.824 267.153 397.077 262.513 375.165 244.612L373.031 242.769C358.459 229.561 353.913 221.695 346.339 204.415C346.628 212.346 348.605 223.506 349.826 231.631C335.096 213.445 328.626 195.993 319.601 174.842C329.179 174.264 335.627 170.567 346.098 169.084C352.644 181.204 362.078 191.61 373.587 199.413C391.529 211.408 413.695 215.726 434.952 211.352C481.319 202.24 501.93 156.092 493.522 113.67C490.34 104.276 488.33 97.1812 482.325 88.9926Z" fill="white"/>
<path d="M81.3694 94.7501C89.1683 79.2986 99.0431 79.5511 111.969 89.4006C106.448 98.6385 104.717 102.822 102.411 113.655C94.6554 144.287 106.81 181.956 133.882 199.852C174.175 226.482 228.376 211.277 248.737 168.011C256.45 170.247 267.91 174.431 275.234 175.053C266.629 195.736 260.958 211.642 247.265 229.637C247.518 222.059 248.037 213.273 248.001 205.79C240.669 223.296 233.279 234.173 217.657 246.003C200.967 259.826 180.906 262.316 160.424 261.447L151.632 260.888C143.602 259.404 139.098 257.85 131.853 254.238C127.06 252.59 123.31 248.672 119.529 245.262C114.035 242.426 99.5801 233.62 97.7516 227.989C102.291 225.324 111.797 229.773 115.035 228.821C110.891 225.876 103.646 224.698 98.7285 221.658C82.046 211.337 76.8794 200.372 71.8708 183.229C80.998 188.432 89.5053 191.809 99.1643 195.832C88.7097 188.741 80.9419 182.688 74.2154 171.563C71.075 166.366 63.7645 148.342 71.2546 144.331C73.5025 145.908 74.7525 147.095 77.4317 147.535C77.4004 145.076 71.8836 136.963 70.2477 134.312C69.9054 119.845 74.4149 107.38 81.3694 94.7501Z" fill="white"/>
<path d="M467.115 101.006C475.786 114.417 477.414 118.13 477.35 134.267C478.211 159.062 464.821 182.287 441.415 192.553C426.559 198.96 409.693 199.228 394.628 193.308C379.703 187.468 369.567 177.289 363.262 162.964C368.993 156.979 373.053 154.336 380.11 150.24C380.31 150.639 380.528 151.04 380.741 151.434C385.964 161.051 393.596 170.603 404.758 172.998C434.453 179.364 446.538 156.546 453.003 134.539C451.96 127.845 448.765 117.31 445.789 111.131C452.405 107.657 460.142 103.536 467.115 101.006Z" fill="white"/>
<path d="M148.055 110.24C146.129 118.823 143.902 126.541 144.238 135.355C144.739 138.46 145.344 141.55 146.041 144.619C154.558 181.089 195.74 184.839 216.093 150.285C222.022 154.844 225.791 157.797 231.213 163.04C220.458 185.167 202.57 198.034 176.867 197.509C160.902 197.09 145.737 190.526 134.694 179.224C122.628 166.882 117.525 150.968 117.831 134.131C117.457 119.227 120.739 113.463 127.825 100.598C134.596 103.752 141.343 106.968 148.055 110.24Z" fill="white"/>
<path d="M551.235 24.481C531.534 42.3327 467.537 77.719 441.024 94.3119C421.273 106.767 401.602 119.349 382.004 132.031C357.433 147.961 326.269 176.03 297.643 155.151C280.749 166.288 268.355 166.23 250.376 155.665C217.443 136.31 186.597 113.503 153.962 93.647C128.25 77.0329 64.2288 43.995 44.0062 24.5565C115.7 36.0111 148.5 45.8935 208.143 90.4282C214.532 97.6625 269.118 137.363 278.36 143.304C274.583 136.533 269.135 129.403 264.563 123.024C274.935 129.354 286.596 136.412 295.9 144.15C306.706 137.61 315.601 131.163 325.523 123.462C322.03 134.301 319.793 136.724 313.184 145.979C317.435 143.345 321.493 140.473 325.418 137.395C346.249 121.062 367.757 105.54 388.511 89.1135L404.172 77.81C458.29 38.4426 490.058 36.4579 551.235 24.481Z" fill="white"/>
<path d="M162.017 116.058C172.482 122.785 182.902 129.733 193.489 136.791L193.67 136.912C196.781 138.985 199.937 141.029 203.078 143.107C195.199 156.393 184.912 160.125 177.919 159.534C171.359 158.978 163.615 154.312 160.59 141.37H160.56C160.011 138.949 159.545 136.5 159.132 134.055C159.04 128.553 160.252 123.742 162.017 116.058Z" fill="white"/>
<path d="M432.292 117.372C434.214 121.363 436.42 128.331 437.613 133.663C434.718 142.621 431.245 149.811 426.836 154.29C422.941 158.24 417.783 160.841 407.944 158.733C404.661 158.025 401.111 155.377 397.514 150.376L393.907 144.588L392.855 142.533C405.951 134.068 419.099 125.675 432.262 117.312L432.292 117.372Z" fill="white"/>
</g>
</svg>
