<svg width="1512" height="991" viewBox="0 0 1512 991" fill="none" xmlns="http://www.w3.org/2000/svg">
<path d="M1531 990.9H-6V-3.21373H1531L1531 990.9ZM-4.01336 988.849H1529.01V-1.1626H-4.01336V988.849Z" fill="url(#paint0_linear_265_204)" fill-opacity="0.1"/>
<path d="M1530.03 939.247H-4.9842V941.299H1530.03V939.247Z" fill="url(#paint1_linear_265_204)" fill-opacity="0.1"/>
<path d="M1530.03 889.643H-4.9842V891.694H1530.03V889.643Z" fill="url(#paint2_linear_265_204)" fill-opacity="0.1"/>
<path d="M1530.03 840.042H-4.9842V842.093H1530.03V840.042Z" fill="url(#paint3_linear_265_204)" fill-opacity="0.1"/>
<path d="M1530.03 790.435H-4.9842V792.486H1530.03V790.435Z" fill="url(#paint4_linear_265_204)" fill-opacity="0.1"/>
<path d="M1530.03 740.837H-4.9842V742.888H1530.03V740.837Z" fill="url(#paint5_linear_265_204)" fill-opacity="0.1"/>
<path d="M1530.03 691.236H-4.9842V693.287H1530.03V691.236Z" fill="url(#paint6_linear_265_204)" fill-opacity="0.1"/>
<path d="M1530.03 641.628H-4.9842V643.68H1530.03V641.628Z" fill="url(#paint7_linear_265_204)" fill-opacity="0.1"/>
<path d="M1530.03 592.024H-4.9842V594.075H1530.03V592.024Z" fill="url(#paint8_linear_265_204)" fill-opacity="0.1"/>
<path d="M1530.03 542.42H-4.9842V544.471H1530.03V542.42Z" fill="url(#paint9_linear_265_204)" fill-opacity="0.1"/>
<path d="M1530.03 492.819H-4.9842V494.87H1530.03V492.819Z" fill="url(#paint10_linear_265_204)" fill-opacity="0.1"/>
<path d="M1530.03 443.218H-4.9842V445.269H1530.03V443.218Z" fill="url(#paint11_linear_265_204)" fill-opacity="0.1"/>
<path d="M1530.03 393.611H-4.9842V395.662H1530.03V393.611Z" fill="url(#paint12_linear_265_204)" fill-opacity="0.1"/>
<path d="M1530.03 344.013H-4.9842V346.064H1530.03V344.013Z" fill="url(#paint13_linear_265_204)" fill-opacity="0.1"/>
<path d="M1530.03 294.405H-4.9842V296.456H1530.03V294.405Z" fill="url(#paint14_linear_265_204)" fill-opacity="0.1"/>
<path d="M1530.03 244.804H-4.9842V246.855H1530.03V244.804Z" fill="url(#paint15_linear_265_204)" fill-opacity="0.1"/>
<path d="M1530.03 195.2H-4.9842V197.251H1530.03V195.2Z" fill="url(#paint16_linear_265_204)" fill-opacity="0.1"/>
<path d="M1530.03 145.596H-4.9842V147.647H1530.03V145.596Z" fill="url(#paint17_linear_265_204)" fill-opacity="0.1"/>
<path d="M1530.03 95.9947H-4.9842V98.0458H1530.03V95.9947Z" fill="url(#paint18_linear_265_204)" fill-opacity="0.1"/>
<path d="M1530.03 46.3873H-4.9842V48.4384H1530.03V46.3873Z" fill="url(#paint19_linear_265_204)" fill-opacity="0.1"/>
<path d="M1484.49 -2.18366H1482.51V989.878H1484.49V-2.18366Z" fill="url(#paint20_linear_265_204)" fill-opacity="0.1"/>
<path d="M1437.96 -2.18366H1435.97V989.878H1437.96V-2.18366Z" fill="url(#paint21_linear_265_204)" fill-opacity="0.1"/>
<path d="M1391.48 -2.18366H1389.49V989.878H1391.48V-2.18366Z" fill="url(#paint22_linear_265_204)" fill-opacity="0.1"/>
<path d="M1344.95 -2.18366H1342.96V989.878H1344.95V-2.18366Z" fill="url(#paint23_linear_265_204)" fill-opacity="0.1"/>
<path d="M1298.43 -2.18366H1296.44V989.878H1298.43V-2.18366Z" fill="url(#paint24_linear_265_204)" fill-opacity="0.1"/>
<path d="M1251.92 -2.18366H1249.94V989.878H1251.92V-2.18366Z" fill="url(#paint25_linear_265_204)" fill-opacity="0.1"/>
<path d="M1205.39 -2.18366H1203.4V989.878H1205.39V-2.18366Z" fill="url(#paint26_linear_265_204)" fill-opacity="0.1"/>
<path d="M1158.88 -2.18414H1156.9V989.878H1158.88V-2.18414Z" fill="url(#paint27_linear_265_204)" fill-opacity="0.1"/>
<path d="M1112.37 -2.18366H1110.38V989.878H1112.37V-2.18366Z" fill="url(#paint28_linear_265_204)" fill-opacity="0.1"/>
<path d="M1065.86 -2.18366H1063.87V989.878H1065.86V-2.18366Z" fill="url(#paint29_linear_265_204)" fill-opacity="0.1"/>
<path d="M1019.33 -2.18366H1017.34V989.878H1019.33V-2.18366Z" fill="url(#paint30_linear_265_204)" fill-opacity="0.1"/>
<path d="M972.809 -2.18366H970.822V989.878H972.809V-2.18366Z" fill="url(#paint31_linear_265_204)" fill-opacity="0.1"/>
<path d="M926.314 -2.18366H924.328V989.878H926.314V-2.18366Z" fill="url(#paint32_linear_265_204)" fill-opacity="0.1"/>
<path d="M879.783 -2.18366H877.797V989.878H879.783V-2.18366Z" fill="url(#paint33_linear_265_204)" fill-opacity="0.1"/>
<path d="M833.289 -2.18366H831.303V989.878H833.289V-2.18366Z" fill="url(#paint34_linear_265_204)" fill-opacity="0.1"/>
<path d="M786.758 -2.18366H784.771V989.878H786.758V-2.18366Z" fill="url(#paint35_linear_265_204)" fill-opacity="0.1"/>
<path d="M740.263 -2.18366H738.277V989.878H740.263V-2.18366Z" fill="url(#paint36_linear_265_204)" fill-opacity="0.1"/>
<path d="M693.732 -2.18414H691.746V989.878H693.732V-2.18414Z" fill="url(#paint37_linear_265_204)" fill-opacity="0.1"/>
<path d="M647.202 -2.18414H645.215V989.878H647.202V-2.18414Z" fill="url(#paint38_linear_265_204)" fill-opacity="0.1"/>
<path d="M600.707 -2.18366H598.721V989.878H600.707V-2.18366Z" fill="url(#paint39_linear_265_204)" fill-opacity="0.1"/>
<path d="M554.176 -2.18366H552.189V989.878H554.176V-2.18366Z" fill="url(#paint40_linear_265_204)" fill-opacity="0.1"/>
<path d="M507.669 -2.18366H505.683V989.878H507.669V-2.18366Z" fill="url(#paint41_linear_265_204)" fill-opacity="0.1"/>
<path d="M461.162 -2.18366H459.176V989.878H461.162V-2.18366Z" fill="url(#paint42_linear_265_204)" fill-opacity="0.1"/>
<path d="M414.631 -2.18366H412.645V989.878H414.631V-2.18366Z" fill="url(#paint43_linear_265_204)" fill-opacity="0.1"/>
<path d="M368.125 -2.18366H366.139V989.878H368.125V-2.18366Z" fill="url(#paint44_linear_265_204)" fill-opacity="0.1"/>
<path d="M321.594 -2.18366H319.607V989.878H321.594V-2.18366Z" fill="url(#paint45_linear_265_204)" fill-opacity="0.1"/>
<path d="M275.099 -2.18366H273.113V989.878H275.099V-2.18366Z" fill="url(#paint46_linear_265_204)" fill-opacity="0.1"/>
<path d="M228.568 -2.18366H226.582V989.878H228.568V-2.18366Z" fill="url(#paint47_linear_265_204)" fill-opacity="0.1"/>
<path d="M182.074 -2.18414H180.088V989.878H182.074V-2.18414Z" fill="url(#paint48_linear_265_204)" fill-opacity="0.1"/>
<path d="M135.543 -2.18366H133.557V989.878H135.543V-2.18366Z" fill="url(#paint49_linear_265_204)" fill-opacity="0.1"/>
<path d="M89.0239 -2.18366H87.0377V989.878H89.0239V-2.18366Z" fill="url(#paint50_linear_265_204)" fill-opacity="0.1"/>
<path d="M42.5173 -2.18366H40.5311V989.878H42.5173V-2.18366Z" fill="url(#paint51_linear_265_204)" fill-opacity="0.1"/>
<defs>
<linearGradient id="paint0_linear_265_204" x1="762.5" y1="-3.21373" x2="762.5" y2="990.9" gradientUnits="userSpaceOnUse">
<stop stop-color="white"/>
<stop offset="1"/>
</linearGradient>
<linearGradient id="paint1_linear_265_204" x1="762.5" y1="-3.21373" x2="762.5" y2="990.9" gradientUnits="userSpaceOnUse">
<stop stop-color="white"/>
<stop offset="1"/>
</linearGradient>
<linearGradient id="paint2_linear_265_204" x1="762.5" y1="-3.21373" x2="762.5" y2="990.9" gradientUnits="userSpaceOnUse">
<stop stop-color="white"/>
<stop offset="1"/>
</linearGradient>
<linearGradient id="paint3_linear_265_204" x1="762.5" y1="-3.21373" x2="762.5" y2="990.9" gradientUnits="userSpaceOnUse">
<stop stop-color="white"/>
<stop offset="1"/>
</linearGradient>
<linearGradient id="paint4_linear_265_204" x1="762.5" y1="-3.21373" x2="762.5" y2="990.9" gradientUnits="userSpaceOnUse">
<stop stop-color="white"/>
<stop offset="1"/>
</linearGradient>
<linearGradient id="paint5_linear_265_204" x1="762.5" y1="-3.21373" x2="762.5" y2="990.9" gradientUnits="userSpaceOnUse">
<stop stop-color="white"/>
<stop offset="1"/>
</linearGradient>
<linearGradient id="paint6_linear_265_204" x1="762.5" y1="-3.21373" x2="762.5" y2="990.9" gradientUnits="userSpaceOnUse">
<stop stop-color="white"/>
<stop offset="1"/>
</linearGradient>
<linearGradient id="paint7_linear_265_204" x1="762.5" y1="-3.21373" x2="762.5" y2="990.9" gradientUnits="userSpaceOnUse">
<stop stop-color="white"/>
<stop offset="1"/>
</linearGradient>
<linearGradient id="paint8_linear_265_204" x1="762.5" y1="-3.21373" x2="762.5" y2="990.9" gradientUnits="userSpaceOnUse">
<stop stop-color="white"/>
<stop offset="1"/>
</linearGradient>
<linearGradient id="paint9_linear_265_204" x1="762.5" y1="-3.21373" x2="762.5" y2="990.9" gradientUnits="userSpaceOnUse">
<stop stop-color="white"/>
<stop offset="1"/>
</linearGradient>
<linearGradient id="paint10_linear_265_204" x1="762.5" y1="-3.21373" x2="762.5" y2="990.9" gradientUnits="userSpaceOnUse">
<stop stop-color="white"/>
<stop offset="1"/>
</linearGradient>
<linearGradient id="paint11_linear_265_204" x1="762.5" y1="-3.21373" x2="762.5" y2="990.9" gradientUnits="userSpaceOnUse">
<stop stop-color="white"/>
<stop offset="1"/>
</linearGradient>
<linearGradient id="paint12_linear_265_204" x1="762.5" y1="-3.21373" x2="762.5" y2="990.9" gradientUnits="userSpaceOnUse">
<stop stop-color="white"/>
<stop offset="1"/>
</linearGradient>
<linearGradient id="paint13_linear_265_204" x1="762.5" y1="-3.21373" x2="762.5" y2="990.9" gradientUnits="userSpaceOnUse">
<stop stop-color="white"/>
<stop offset="1"/>
</linearGradient>
<linearGradient id="paint14_linear_265_204" x1="762.5" y1="-3.21373" x2="762.5" y2="990.9" gradientUnits="userSpaceOnUse">
<stop stop-color="white"/>
<stop offset="1"/>
</linearGradient>
<linearGradient id="paint15_linear_265_204" x1="762.5" y1="-3.21373" x2="762.5" y2="990.9" gradientUnits="userSpaceOnUse">
<stop stop-color="white"/>
<stop offset="1"/>
</linearGradient>
<linearGradient id="paint16_linear_265_204" x1="762.5" y1="-3.21373" x2="762.5" y2="990.9" gradientUnits="userSpaceOnUse">
<stop stop-color="white"/>
<stop offset="1"/>
</linearGradient>
<linearGradient id="paint17_linear_265_204" x1="762.5" y1="-3.21373" x2="762.5" y2="990.9" gradientUnits="userSpaceOnUse">
<stop stop-color="white"/>
<stop offset="1"/>
</linearGradient>
<linearGradient id="paint18_linear_265_204" x1="762.5" y1="-3.21373" x2="762.5" y2="990.9" gradientUnits="userSpaceOnUse">
<stop stop-color="white"/>
<stop offset="1"/>
</linearGradient>
<linearGradient id="paint19_linear_265_204" x1="762.5" y1="-3.21373" x2="762.5" y2="990.9" gradientUnits="userSpaceOnUse">
<stop stop-color="white"/>
<stop offset="1"/>
</linearGradient>
<linearGradient id="paint20_linear_265_204" x1="762.5" y1="-3.21373" x2="762.5" y2="990.9" gradientUnits="userSpaceOnUse">
<stop stop-color="white"/>
<stop offset="1"/>
</linearGradient>
<linearGradient id="paint21_linear_265_204" x1="762.5" y1="-3.21373" x2="762.5" y2="990.9" gradientUnits="userSpaceOnUse">
<stop stop-color="white"/>
<stop offset="1"/>
</linearGradient>
<linearGradient id="paint22_linear_265_204" x1="762.5" y1="-3.21373" x2="762.5" y2="990.9" gradientUnits="userSpaceOnUse">
<stop stop-color="white"/>
<stop offset="1"/>
</linearGradient>
<linearGradient id="paint23_linear_265_204" x1="762.5" y1="-3.21373" x2="762.5" y2="990.9" gradientUnits="userSpaceOnUse">
<stop stop-color="white"/>
<stop offset="1"/>
</linearGradient>
<linearGradient id="paint24_linear_265_204" x1="762.5" y1="-3.21373" x2="762.5" y2="990.9" gradientUnits="userSpaceOnUse">
<stop stop-color="white"/>
<stop offset="1"/>
</linearGradient>
<linearGradient id="paint25_linear_265_204" x1="762.5" y1="-3.21373" x2="762.5" y2="990.9" gradientUnits="userSpaceOnUse">
<stop stop-color="white"/>
<stop offset="1"/>
</linearGradient>
<linearGradient id="paint26_linear_265_204" x1="762.5" y1="-3.21373" x2="762.5" y2="990.9" gradientUnits="userSpaceOnUse">
<stop stop-color="white"/>
<stop offset="1"/>
</linearGradient>
<linearGradient id="paint27_linear_265_204" x1="762.5" y1="-3.21373" x2="762.5" y2="990.9" gradientUnits="userSpaceOnUse">
<stop stop-color="white"/>
<stop offset="1"/>
</linearGradient>
<linearGradient id="paint28_linear_265_204" x1="762.5" y1="-3.21373" x2="762.5" y2="990.9" gradientUnits="userSpaceOnUse">
<stop stop-color="white"/>
<stop offset="1"/>
</linearGradient>
<linearGradient id="paint29_linear_265_204" x1="762.5" y1="-3.21373" x2="762.5" y2="990.9" gradientUnits="userSpaceOnUse">
<stop stop-color="white"/>
<stop offset="1"/>
</linearGradient>
<linearGradient id="paint30_linear_265_204" x1="762.5" y1="-3.21373" x2="762.5" y2="990.9" gradientUnits="userSpaceOnUse">
<stop stop-color="white"/>
<stop offset="1"/>
</linearGradient>
<linearGradient id="paint31_linear_265_204" x1="762.5" y1="-3.21373" x2="762.5" y2="990.9" gradientUnits="userSpaceOnUse">
<stop stop-color="white"/>
<stop offset="1"/>
</linearGradient>
<linearGradient id="paint32_linear_265_204" x1="762.5" y1="-3.21373" x2="762.5" y2="990.9" gradientUnits="userSpaceOnUse">
<stop stop-color="white"/>
<stop offset="1"/>
</linearGradient>
<linearGradient id="paint33_linear_265_204" x1="762.5" y1="-3.21373" x2="762.5" y2="990.9" gradientUnits="userSpaceOnUse">
<stop stop-color="white"/>
<stop offset="1"/>
</linearGradient>
<linearGradient id="paint34_linear_265_204" x1="762.5" y1="-3.21373" x2="762.5" y2="990.9" gradientUnits="userSpaceOnUse">
<stop stop-color="white"/>
<stop offset="1"/>
</linearGradient>
<linearGradient id="paint35_linear_265_204" x1="762.5" y1="-3.21373" x2="762.5" y2="990.9" gradientUnits="userSpaceOnUse">
<stop stop-color="white"/>
<stop offset="1"/>
</linearGradient>
<linearGradient id="paint36_linear_265_204" x1="762.5" y1="-3.21373" x2="762.5" y2="990.9" gradientUnits="userSpaceOnUse">
<stop stop-color="white"/>
<stop offset="1"/>
</linearGradient>
<linearGradient id="paint37_linear_265_204" x1="762.5" y1="-3.21373" x2="762.5" y2="990.9" gradientUnits="userSpaceOnUse">
<stop stop-color="white"/>
<stop offset="1"/>
</linearGradient>
<linearGradient id="paint38_linear_265_204" x1="762.5" y1="-3.21373" x2="762.5" y2="990.9" gradientUnits="userSpaceOnUse">
<stop stop-color="white"/>
<stop offset="1"/>
</linearGradient>
<linearGradient id="paint39_linear_265_204" x1="762.5" y1="-3.21373" x2="762.5" y2="990.9" gradientUnits="userSpaceOnUse">
<stop stop-color="white"/>
<stop offset="1"/>
</linearGradient>
<linearGradient id="paint40_linear_265_204" x1="762.5" y1="-3.21373" x2="762.5" y2="990.9" gradientUnits="userSpaceOnUse">
<stop stop-color="white"/>
<stop offset="1"/>
</linearGradient>
<linearGradient id="paint41_linear_265_204" x1="762.5" y1="-3.21373" x2="762.5" y2="990.9" gradientUnits="userSpaceOnUse">
<stop stop-color="white"/>
<stop offset="1"/>
</linearGradient>
<linearGradient id="paint42_linear_265_204" x1="762.5" y1="-3.21373" x2="762.5" y2="990.9" gradientUnits="userSpaceOnUse">
<stop stop-color="white"/>
<stop offset="1"/>
</linearGradient>
<linearGradient id="paint43_linear_265_204" x1="762.5" y1="-3.21373" x2="762.5" y2="990.9" gradientUnits="userSpaceOnUse">
<stop stop-color="white"/>
<stop offset="1"/>
</linearGradient>
<linearGradient id="paint44_linear_265_204" x1="762.5" y1="-3.21373" x2="762.5" y2="990.9" gradientUnits="userSpaceOnUse">
<stop stop-color="white"/>
<stop offset="1"/>
</linearGradient>
<linearGradient id="paint45_linear_265_204" x1="762.5" y1="-3.21373" x2="762.5" y2="990.9" gradientUnits="userSpaceOnUse">
<stop stop-color="white"/>
<stop offset="1"/>
</linearGradient>
<linearGradient id="paint46_linear_265_204" x1="762.5" y1="-3.21373" x2="762.5" y2="990.9" gradientUnits="userSpaceOnUse">
<stop stop-color="white"/>
<stop offset="1"/>
</linearGradient>
<linearGradient id="paint47_linear_265_204" x1="762.5" y1="-3.21373" x2="762.5" y2="990.9" gradientUnits="userSpaceOnUse">
<stop stop-color="white"/>
<stop offset="1"/>
</linearGradient>
<linearGradient id="paint48_linear_265_204" x1="762.5" y1="-3.21373" x2="762.5" y2="990.9" gradientUnits="userSpaceOnUse">
<stop stop-color="white"/>
<stop offset="1"/>
</linearGradient>
<linearGradient id="paint49_linear_265_204" x1="762.5" y1="-3.21373" x2="762.5" y2="990.9" gradientUnits="userSpaceOnUse">
<stop stop-color="white"/>
<stop offset="1"/>
</linearGradient>
<linearGradient id="paint50_linear_265_204" x1="762.5" y1="-3.21373" x2="762.5" y2="990.9" gradientUnits="userSpaceOnUse">
<stop stop-color="white"/>
<stop offset="1"/>
</linearGradient>
<linearGradient id="paint51_linear_265_204" x1="762.5" y1="-3.21373" x2="762.5" y2="990.9" gradientUnits="userSpaceOnUse">
<stop stop-color="white"/>
<stop offset="1"/>
</linearGradient>
</defs>
</svg>
