<svg preserveAspectRatio="none" width="100%" height="100%" overflow="visible" style="display: block;" viewBox="0 0 331.257 720.314" fill="none" xmlns="http://www.w3.org/2000/svg">
<g id="Group">
<path id="Vector" d="M52.8104 720.172C34.8298 719.245 23.8332 715.094 14.552 705.728C11.1803 702.325 8.7852 699.006 6.57313 694.671C2.36114 686.417 0.825806 678.655 0.372974 663.327C0.220561 658.168 0.0900098 536.46 0.0403519 353.238C-0.0466866 32.092 -0.109259 49.4885 1.16109 41.6484C2.11352 35.7705 3.34076 31.6625 5.52086 27.055C8.03733 21.7366 10.7942 17.9296 15.2 13.6889C23.2636 5.92756 33.5163 1.8473 48.4719 0.447778C53.1105 0.0136968 273.433 -0.190889 280.257 0.232548C289.241 0.789955 295.555 2.07712 301.95 4.65518C315.241 10.0125 325.257 21.9485 328.653 36.4764C330.371 43.8241 330.658 47.329 330.857 63.3414C331.033 77.5232 331.231 316.995 331.257 545.45C331.266 646.435 331.205 669.659 330.919 672.452C329.935 682.079 328.475 687.654 325.207 694.277C320.227 704.366 311.561 712.108 300.778 716.101C294.825 718.306 288.783 719.408 279.863 719.917C274.225 720.238 58.7953 720.48 52.8104 720.172ZM203.872 44.0809C209.734 42.2852 213.585 38.0824 214.563 32.4149C214.896 30.4855 214.896 29.9314 214.558 27.9751C213.692 22.96 210.429 18.8223 205.94 17.0474C202.612 15.7319 203.128 15.7484 165.488 15.7484C134.587 15.7484 130.04 15.7988 128.125 16.1621C120.909 17.5309 116.049 23.1851 116.049 30.2104C116.049 37.4111 121.158 43.217 128.538 44.4026C129.262 44.5188 146.182 44.5936 166.14 44.5689C199.338 44.5278 202.549 44.4863 203.872 44.0809Z" fill="var(--fill-0, white)"/>
</g>
</svg>
