<svg preserveAspectRatio="none" width="100%" height="100%" overflow="visible" style="display: block;" viewBox="0 0 504.28 504.28" fill="none" xmlns="http://www.w3.org/2000/svg">
<g id="g12">
<path id="path14" d="M401.29 280.753C320.014 329.02 185.951 333.458 108.364 309.91C95.9036 306.128 82.7274 313.164 78.9533 325.62C75.1767 338.089 82.2029 351.255 94.6722 355.043C183.738 382.077 331.796 376.857 425.362 321.315C436.568 314.661 440.245 300.188 433.603 289C426.955 277.794 412.469 274.1 401.29 280.753ZM398.628 209.262C392.926 200.009 380.828 197.107 371.588 202.789C303.828 244.44 200.505 256.506 120.34 232.172C109.944 229.03 98.9639 234.892 95.8061 245.268C92.6739 255.664 98.5381 266.624 108.915 269.785C200.492 297.574 314.336 284.114 392.161 236.288C401.401 230.597 404.31 218.493 398.628 209.262ZM367.776 140.605C363.244 133.174 353.57 130.846 346.167 135.375C286.957 171.563 212.432 179.734 124.664 159.688C116.207 157.749 107.778 163.049 105.849 171.506C103.912 179.96 109.192 188.391 117.668 190.321C213.714 212.277 296.102 202.827 362.561 162.217C369.971 157.691 372.304 148.012 367.776 140.605ZM252.141 504.28C112.889 504.28 0 391.393 0 252.144C0 112.877 112.889 0 252.141 0C391.396 0 504.28 112.877 504.28 252.144C504.28 391.393 391.396 504.28 252.141 504.28Z" fill="var(--fill-0, #1ED760)"/>
</g>
</svg>
