<svg preserveAspectRatio="none" width="100%" height="100%" overflow="visible" style="display: block;" viewBox="0 0 283.424 199" fill="none" xmlns="http://www.w3.org/2000/svg">
<g id="g12">
<path id="path14" d="M277.502 167.926C274.242 180.158 264.64 189.79 252.444 193.059C230.342 199 141.712 199 141.712 199C141.712 199 53.0831 199 30.9802 193.059C18.786 189.79 9.18175 180.158 5.92264 167.926C0.000153585 145.756 0.000153585 99.5 0.000153585 99.5C0.000153585 99.5 0.000153585 53.2449 5.92264 31.0731C9.18175 18.8424 18.786 9.21027 30.9802 5.93978C53.0831 0 141.712 0 141.712 0C141.712 0 230.342 0 252.444 5.93978C264.64 9.21027 274.242 18.8424 277.502 31.0731C283.424 53.2449 283.424 99.5 283.424 99.5C283.424 99.5 283.424 145.756 277.502 167.926Z" fill="var(--fill-0, #ED1D24)"/>
<path id="path16" d="M112.726 57.5035L186.803 99.4981L112.726 141.497V57.5035Z" fill="var(--fill-0, white)"/>
</g>
</svg>
