<svg preserveAspectRatio="none" width="100%" height="100%" overflow="visible" style="display: block;" viewBox="0 0 510.582 510.57" fill="none" xmlns="http://www.w3.org/2000/svg">
<g id="g3646">
<path id="Vector" fill-rule="evenodd" clip-rule="evenodd" d="M510.582 350.857C510.582 356.956 510.582 363.054 510.553 369.153C510.525 374.287 510.468 379.421 510.327 384.555C510.029 395.746 509.362 407.021 507.376 418.084C505.363 429.316 502.058 439.769 496.867 449.981C491.761 460.008 485.095 469.17 477.139 477.127C469.182 485.083 460.006 491.749 449.979 496.855C439.781 502.046 429.328 505.336 418.11 507.365C407.047 509.35 395.758 510.017 384.567 510.315C379.433 510.456 374.299 510.513 369.165 510.541C363.066 510.57 356.968 510.57 350.869 510.57H159.713C153.614 510.57 147.516 510.57 141.417 510.541C136.283 510.513 131.149 510.456 126.015 510.315C114.824 510.003 103.535 509.35 92.4721 507.35C81.2393 505.336 70.8008 502.032 60.6033 496.841C50.5761 491.735 41.3998 485.069 33.4432 477.113C25.4867 469.156 18.8207 459.994 13.7149 449.967C8.524 439.755 5.2194 429.302 3.20544 418.069C1.21985 407.007 0.553252 395.717 0.255413 384.541C0.113585 379.407 0.0568534 374.273 0.0284877 369.139C0.00012207 363.054 0.00012207 356.956 0.00012207 350.857V159.715C0.00012207 153.616 0.00012207 147.518 0.0284877 141.419C0.0568534 136.285 0.113585 131.151 0.255413 126.017C0.553252 114.826 1.21985 103.551 3.20544 92.4885C5.2194 81.2557 8.524 70.8029 13.7149 60.5913C18.8207 50.5641 25.4867 41.4019 33.4432 33.4454C41.3998 25.4888 50.5761 18.8229 60.6033 13.717C70.8008 8.52613 81.2535 5.23571 92.4721 3.20756C103.535 1.22197 114.824 0.555395 126.015 0.257555C131.149 0.115727 136.283 0.0589905 141.417 0.0306249C147.516 -0.0119236 153.614 0.00227479 159.713 0.00227479H350.855C356.953 0.00227479 363.052 0.00225921 369.151 0.0306249C374.285 0.0589905 379.419 0.115727 384.553 0.257555C395.744 0.555395 407.033 1.22197 418.096 3.20756C429.328 5.22153 439.767 8.52613 449.964 13.717C459.992 18.8229 469.168 25.4888 477.125 33.4454C485.081 41.4019 491.747 50.5641 496.853 60.5913C502.044 70.8029 505.348 81.2557 507.362 92.4885C509.348 103.551 510.015 114.841 510.312 126.017C510.454 131.151 510.511 136.285 510.539 141.419C510.582 147.518 510.568 153.616 510.568 159.715V350.857H510.582Z" fill="var(--fill-0, #FFFC00)"/>
</g>
</svg>
