<svg preserveAspectRatio="none" width="100%" height="100%" overflow="visible" style="display: block;" viewBox="0 0 367.866 362.211" fill="none" xmlns="http://www.w3.org/2000/svg">
<g id="g823">
<g id="g819">
<path id="path817" d="M356.557 268.874C355.048 263.88 347.827 260.359 347.827 260.359C347.144 260 346.534 259.677 346.031 259.425C333.995 253.605 323.325 246.6 314.343 238.66C307.122 232.265 300.943 225.223 295.985 217.751C289.913 208.625 287.075 201.009 285.854 196.877C285.171 194.183 285.279 193.105 285.854 191.704C286.321 190.518 287.722 189.405 288.369 188.866C292.428 185.991 298.967 181.752 302.991 179.165C306.476 176.902 309.457 174.962 311.218 173.741C316.858 169.789 320.738 165.765 323.002 161.418C325.948 155.813 326.307 149.634 324.008 143.562C320.918 135.371 313.266 130.485 303.53 130.485C301.374 130.485 299.147 130.737 296.919 131.204C291.351 132.425 286.069 134.401 281.65 136.126C281.327 136.269 280.968 136.018 281.004 135.658C281.471 124.701 282.01 109.971 280.788 95.9956C279.71 83.3495 277.088 72.6793 272.848 63.3743C268.573 54.0335 263.005 47.1356 258.657 42.1418C254.526 37.3995 247.233 30.3938 236.239 24.1067C220.791 15.2688 203.187 10.7779 183.93 10.7779C164.71 10.7779 147.142 15.2688 131.657 24.1067C120.017 30.7531 112.58 38.2617 109.203 42.1418C104.856 47.1356 99.2875 54.0335 95.0122 63.3743C90.737 72.6793 88.1503 83.3136 87.0725 95.9956C85.851 110.043 86.3539 123.587 86.8569 135.658C86.8569 136.018 86.5336 136.269 86.1743 136.126C81.7553 134.401 76.4741 132.425 70.9055 131.204C68.714 130.737 66.4866 130.485 64.2951 130.485C54.5949 130.485 46.9426 135.371 43.817 143.562C41.5177 149.634 41.8769 155.813 44.8229 161.418C47.1222 165.765 50.9663 169.789 56.6068 173.741C58.3313 174.962 61.3491 176.902 64.834 179.165C68.7499 181.716 75.1089 185.848 79.2046 188.686C79.7075 189.045 81.432 190.339 81.9709 191.704C82.5457 193.141 82.6535 194.219 81.899 197.093C80.6416 201.26 77.8034 208.805 71.8396 217.751C66.8818 225.259 60.7024 232.265 53.4812 238.66C44.4996 246.6 33.8294 253.605 21.794 259.425C21.2192 259.713 20.5366 260.036 19.8181 260.467C19.8181 260.467 12.6328 264.132 11.2675 268.874C9.25566 275.88 14.6087 282.454 20.0336 285.975C28.9434 291.723 39.7932 294.813 46.0803 296.501C47.8407 296.968 49.4215 297.4 50.8586 297.831C51.7567 298.118 54.0201 298.98 54.9901 300.238C56.2116 301.819 56.3553 303.759 56.7864 305.95C57.469 309.651 59.0139 314.213 63.5765 317.375C68.6062 320.824 74.9652 321.075 83.0487 321.398C91.4914 321.722 101.982 322.117 114.017 326.105C119.586 327.937 124.652 331.063 130.472 334.655C142.687 342.164 157.884 351.505 183.823 351.505C209.797 351.505 225.102 342.128 237.389 334.584C243.209 331.027 248.203 327.937 253.664 326.141C265.699 322.153 276.19 321.758 284.632 321.434C292.716 321.111 299.075 320.896 304.104 317.411C308.99 314.034 310.392 309.004 311.038 305.232C311.398 303.363 311.613 301.675 312.691 300.31C313.625 299.124 315.709 298.298 316.679 297.974C318.152 297.507 319.804 297.076 321.637 296.573C327.924 294.885 335.828 292.909 345.42 287.484C356.988 280.909 357.779 272.862 356.557 268.874Z" fill="var(--fill-0, white)"/>
</g>
<path id="path821" d="M366.545 264.994C363.994 258.024 359.108 254.324 353.575 251.234C352.533 250.623 351.563 250.12 350.773 249.761C349.12 248.899 347.432 248.072 345.743 247.21C328.463 238.049 314.954 226.481 305.613 212.793C302.452 208.158 300.26 203.991 298.715 200.578C297.925 198.278 297.961 196.985 298.536 195.799C298.967 194.901 300.117 193.967 300.763 193.5C303.745 191.524 306.799 189.548 308.883 188.219C312.583 185.812 315.529 183.908 317.397 182.614C324.511 177.657 329.469 172.375 332.558 166.483C336.941 158.184 337.48 148.7 334.103 139.79C329.433 127.431 317.721 119.743 303.566 119.743C300.62 119.743 297.638 120.066 294.692 120.713C293.901 120.893 293.147 121.072 292.392 121.252C292.536 112.845 292.321 103.864 291.566 95.0975C288.908 64.2007 278.094 47.9978 266.813 35.1002C262.106 29.7112 253.915 21.8433 241.628 14.8017C224.491 4.95786 205.091 2.38419e-07 183.93 2.38419e-07C162.841 2.38419e-07 143.441 4.95786 126.304 14.7658C113.945 21.8074 105.754 29.7112 101.084 35.0643C89.8029 47.9619 78.989 64.1647 76.3304 95.0615C75.576 103.828 75.3964 112.809 75.5041 121.216C74.7497 121.036 73.9593 120.857 73.2048 120.677C70.2589 120.03 67.241 119.707 64.331 119.707C50.176 119.707 38.4639 127.395 33.7935 139.754C30.4164 148.664 30.9553 158.148 35.3383 166.447C38.428 172.339 43.4218 177.621 50.4993 182.578C52.4034 183.908 55.3134 185.812 59.0139 188.183C61.0258 189.476 63.9358 191.38 66.8099 193.285C67.241 193.572 68.7859 194.722 69.3248 195.799C69.9355 197.021 69.9355 198.35 69.0374 200.793C67.5285 204.134 65.3369 208.23 62.2473 212.757C53.086 226.157 39.9728 237.51 23.267 246.564C14.3932 251.27 5.19597 254.396 1.31591 264.958C-1.63006 272.934 0.309966 282.023 7.74675 289.675C10.1898 292.298 13.2794 294.633 17.1595 296.789C26.2848 301.819 34.045 304.297 40.1525 305.986C41.2303 306.309 43.7092 307.1 44.787 308.07C47.5174 310.441 47.1222 314.034 50.7508 319.279C52.9423 322.548 55.4571 324.776 57.5409 326.213C65.1214 331.458 73.6719 331.781 82.7254 332.14C90.8807 332.464 100.15 332.823 110.712 336.308C115.095 337.745 119.658 340.547 124.903 343.781C137.549 351.577 154.902 362.211 183.894 362.211C212.923 362.211 230.347 351.505 243.101 343.709C248.347 340.511 252.873 337.709 257.113 336.308C267.675 332.823 276.944 332.464 285.099 332.14C294.153 331.781 302.667 331.458 310.284 326.213C312.655 324.56 315.673 321.866 318.044 317.77C320.631 313.351 320.595 310.225 323.038 308.106C324.044 307.243 326.235 306.489 327.421 306.13C333.564 304.441 341.432 301.962 350.737 296.825C354.869 294.561 358.066 292.082 360.617 289.244C360.653 289.208 360.689 289.172 360.725 289.136C367.658 281.592 369.419 272.79 366.545 264.994ZM340.785 278.826C325.05 287.52 314.595 286.586 306.476 291.795C299.578 296.25 303.637 305.842 298.644 309.291C292.464 313.566 274.25 309.004 250.718 316.764C231.317 323.195 218.923 341.625 183.966 341.625C148.938 341.625 136.903 323.267 117.215 316.764C93.6829 309.004 75.4323 313.566 69.2889 309.291C64.2951 305.842 68.3548 296.25 61.4569 291.795C53.3375 286.55 42.8829 287.484 27.1471 278.826C17.1236 273.293 22.8 269.88 26.1411 268.263C83.1206 240.708 92.174 198.099 92.6051 194.901C93.1081 191.093 93.647 188.075 89.4436 184.159C85.3839 180.387 67.3129 169.214 62.3191 165.729C54.0201 159.945 50.3915 154.161 53.086 147.047C54.9542 142.125 59.5528 140.293 64.4029 140.293C65.9118 140.293 67.4566 140.473 68.9296 140.796C78.019 142.772 86.8569 147.335 91.9585 148.556C92.677 148.736 93.2878 148.808 93.8267 148.808C96.5571 148.808 97.4912 147.442 97.3115 144.317C96.7367 134.365 95.2996 114.965 96.8804 96.8219C99.036 71.8889 107.084 59.5302 116.64 48.5726C121.239 43.3274 142.794 20.55 184.002 20.55C225.318 20.55 246.766 43.3274 251.364 48.5726C260.921 59.4943 268.968 71.853 271.124 96.8219C272.705 114.965 271.34 134.365 270.693 144.317C270.477 147.586 271.483 148.808 274.178 148.808C274.717 148.808 275.363 148.736 276.046 148.556C281.147 147.335 289.985 142.772 299.075 140.796C300.548 140.473 302.093 140.293 303.601 140.293C308.452 140.293 313.05 142.161 314.918 147.047C317.613 154.161 313.948 159.945 305.685 165.729C300.691 169.214 282.62 180.387 278.561 184.159C274.357 188.039 274.896 191.057 275.399 194.901C275.794 198.099 284.884 240.708 341.863 268.263C345.097 269.88 350.809 273.293 340.785 278.826Z" fill="var(--fill-0, black)"/>
</g>
</svg>
