<svg preserveAspectRatio="none" width="100%" height="100%" overflow="visible" style="display: block;" viewBox="0 0 1537 994.114" fill="none" xmlns="http://www.w3.org/2000/svg">
<g id="grid-pattern">
<path d="M1537 994.114H0V0H1537L1537 994.114ZM1.98664 992.062H1535.01V2.05113H1.98664V992.062Z" fill="url(#paint0_linear_0_308)" fill-opacity="0.1"/>
<path d="M1536.03 942.461H1.0158V944.512H1536.03V942.461Z" fill="url(#paint1_linear_0_308)" fill-opacity="0.1"/>
<path d="M1536.03 892.857H1.0158V894.908H1536.03V892.857Z" fill="url(#paint2_linear_0_308)" fill-opacity="0.1"/>
<path d="M1536.03 843.256H1.0158V845.307H1536.03V843.256Z" fill="url(#paint3_linear_0_308)" fill-opacity="0.1"/>
<path d="M1536.03 793.648H1.0158V795.7H1536.03V793.648Z" fill="url(#paint4_linear_0_308)" fill-opacity="0.1"/>
<path d="M1536.03 744.051H1.0158V746.102H1536.03V744.051Z" fill="url(#paint5_linear_0_308)" fill-opacity="0.1"/>
<path d="M1536.03 694.45H1.0158V696.501H1536.03V694.45Z" fill="url(#paint6_linear_0_308)" fill-opacity="0.1"/>
<path d="M1536.03 644.842H1.0158V646.893H1536.03V644.842Z" fill="url(#paint7_linear_0_308)" fill-opacity="0.1"/>
<path d="M1536.03 595.238H1.0158V597.289H1536.03V595.238Z" fill="url(#paint8_linear_0_308)" fill-opacity="0.1"/>
<path d="M1536.03 545.634H1.0158V547.685H1536.03V545.634Z" fill="url(#paint9_linear_0_308)" fill-opacity="0.1"/>
<path d="M1536.03 496.033H1.0158V498.084H1536.03V496.033Z" fill="url(#paint10_linear_0_308)" fill-opacity="0.1"/>
<path d="M1536.03 446.432H1.0158V448.483H1536.03V446.432Z" fill="url(#paint11_linear_0_308)" fill-opacity="0.1"/>
<path d="M1536.03 396.824H1.0158V398.875H1536.03V396.824Z" fill="url(#paint12_linear_0_308)" fill-opacity="0.1"/>
<path d="M1536.03 347.226H1.0158V349.277H1536.03V347.226Z" fill="url(#paint13_linear_0_308)" fill-opacity="0.1"/>
<path d="M1536.03 297.619H1.0158V299.67H1536.03V297.619Z" fill="url(#paint14_linear_0_308)" fill-opacity="0.1"/>
<path d="M1536.03 248.018H1.0158V250.069H1536.03V248.018Z" fill="url(#paint15_linear_0_308)" fill-opacity="0.1"/>
<path d="M1536.03 198.414H1.0158V200.465H1536.03V198.414Z" fill="url(#paint16_linear_0_308)" fill-opacity="0.1"/>
<path d="M1536.03 148.809H1.0158V150.861H1536.03V148.809Z" fill="url(#paint17_linear_0_308)" fill-opacity="0.1"/>
<path d="M1536.03 99.2084H1.0158V101.26H1536.03V99.2084Z" fill="url(#paint18_linear_0_308)" fill-opacity="0.1"/>
<path d="M1536.03 49.6011H1.0158V51.6522H1536.03V49.6011Z" fill="url(#paint19_linear_0_308)" fill-opacity="0.1"/>
<path d="M1490.49 1.03006H1488.51V993.092H1490.49V1.03006Z" fill="url(#paint20_linear_0_308)" fill-opacity="0.1"/>
<path d="M1443.96 1.03006H1441.97V993.092H1443.96V1.03006Z" fill="url(#paint21_linear_0_308)" fill-opacity="0.1"/>
<path d="M1397.48 1.03006H1395.49V993.092H1397.48V1.03006Z" fill="url(#paint22_linear_0_308)" fill-opacity="0.1"/>
<path d="M1350.95 1.03006H1348.96V993.092H1350.95V1.03006Z" fill="url(#paint23_linear_0_308)" fill-opacity="0.1"/>
<path d="M1304.43 1.03006H1302.44V993.092H1304.43V1.03006Z" fill="url(#paint24_linear_0_308)" fill-opacity="0.1"/>
<path d="M1257.92 1.03006H1255.94V993.092H1257.92V1.03006Z" fill="url(#paint25_linear_0_308)" fill-opacity="0.1"/>
<path d="M1211.39 1.03006H1209.4V993.092H1211.39V1.03006Z" fill="url(#paint26_linear_0_308)" fill-opacity="0.1"/>
<path d="M1164.88 1.02959H1162.9V993.091H1164.88V1.02959Z" fill="url(#paint27_linear_0_308)" fill-opacity="0.1"/>
<path d="M1118.37 1.03006H1116.38V993.092H1118.37V1.03006Z" fill="url(#paint28_linear_0_308)" fill-opacity="0.1"/>
<path d="M1071.86 1.03006H1069.87V993.092H1071.86V1.03006Z" fill="url(#paint29_linear_0_308)" fill-opacity="0.1"/>
<path d="M1025.33 1.03006H1023.34V993.092H1025.33V1.03006Z" fill="url(#paint30_linear_0_308)" fill-opacity="0.1"/>
<path d="M978.809 1.03006H976.822V993.092H978.809V1.03006Z" fill="url(#paint31_linear_0_308)" fill-opacity="0.1"/>
<path d="M932.314 1.03006H930.328V993.092H932.314V1.03006Z" fill="url(#paint32_linear_0_308)" fill-opacity="0.1"/>
<path d="M885.783 1.03006H883.797V993.092H885.783V1.03006Z" fill="url(#paint33_linear_0_308)" fill-opacity="0.1"/>
<path d="M839.289 1.03006H837.303V993.092H839.289V1.03006Z" fill="url(#paint34_linear_0_308)" fill-opacity="0.1"/>
<path d="M792.758 1.03006H790.771V993.092H792.758V1.03006Z" fill="url(#paint35_linear_0_308)" fill-opacity="0.1"/>
<path d="M746.263 1.03006H744.277V993.092H746.263V1.03006Z" fill="url(#paint36_linear_0_308)" fill-opacity="0.1"/>
<path d="M699.732 1.02959H697.746V993.091H699.732V1.02959Z" fill="url(#paint37_linear_0_308)" fill-opacity="0.1"/>
<path d="M653.202 1.02959H651.215V993.091H653.202V1.02959Z" fill="url(#paint38_linear_0_308)" fill-opacity="0.1"/>
<path d="M606.707 1.03006H604.721V993.092H606.707V1.03006Z" fill="url(#paint39_linear_0_308)" fill-opacity="0.1"/>
<path d="M560.176 1.03006H558.189V993.092H560.176V1.03006Z" fill="url(#paint40_linear_0_308)" fill-opacity="0.1"/>
<path d="M513.669 1.03006H511.683V993.092H513.669V1.03006Z" fill="url(#paint41_linear_0_308)" fill-opacity="0.1"/>
<path d="M467.162 1.03006H465.176V993.092H467.162V1.03006Z" fill="url(#paint42_linear_0_308)" fill-opacity="0.1"/>
<path d="M420.631 1.03006H418.645V993.092H420.631V1.03006Z" fill="url(#paint43_linear_0_308)" fill-opacity="0.1"/>
<path d="M374.125 1.03006H372.139V993.092H374.125V1.03006Z" fill="url(#paint44_linear_0_308)" fill-opacity="0.1"/>
<path d="M327.594 1.03006H325.607V993.092H327.594V1.03006Z" fill="url(#paint45_linear_0_308)" fill-opacity="0.1"/>
<path d="M281.099 1.03006H279.113V993.092H281.099V1.03006Z" fill="url(#paint46_linear_0_308)" fill-opacity="0.1"/>
<path d="M234.568 1.03006H232.582V993.092H234.568V1.03006Z" fill="url(#paint47_linear_0_308)" fill-opacity="0.1"/>
<path d="M188.074 1.02959H186.088V993.091H188.074V1.02959Z" fill="url(#paint48_linear_0_308)" fill-opacity="0.1"/>
<path d="M141.543 1.03006H139.557V993.092H141.543V1.03006Z" fill="url(#paint49_linear_0_308)" fill-opacity="0.1"/>
<path d="M95.0239 1.03006H93.0377V993.092H95.0239V1.03006Z" fill="url(#paint50_linear_0_308)" fill-opacity="0.1"/>
<path d="M48.5173 1.03006H46.5311V993.092H48.5173V1.03006Z" fill="url(#paint51_linear_0_308)" fill-opacity="0.1"/>
</g>
<defs>
<linearGradient id="paint0_linear_0_308" x1="768.5" y1="0" x2="768.5" y2="994.114" gradientUnits="userSpaceOnUse">
<stop stop-color="white"/>
<stop offset="1"/>
</linearGradient>
<linearGradient id="paint1_linear_0_308" x1="768.5" y1="0" x2="768.5" y2="994.114" gradientUnits="userSpaceOnUse">
<stop stop-color="white"/>
<stop offset="1"/>
</linearGradient>
<linearGradient id="paint2_linear_0_308" x1="768.5" y1="0" x2="768.5" y2="994.114" gradientUnits="userSpaceOnUse">
<stop stop-color="white"/>
<stop offset="1"/>
</linearGradient>
<linearGradient id="paint3_linear_0_308" x1="768.5" y1="0" x2="768.5" y2="994.114" gradientUnits="userSpaceOnUse">
<stop stop-color="white"/>
<stop offset="1"/>
</linearGradient>
<linearGradient id="paint4_linear_0_308" x1="768.5" y1="0" x2="768.5" y2="994.114" gradientUnits="userSpaceOnUse">
<stop stop-color="white"/>
<stop offset="1"/>
</linearGradient>
<linearGradient id="paint5_linear_0_308" x1="768.5" y1="0" x2="768.5" y2="994.114" gradientUnits="userSpaceOnUse">
<stop stop-color="white"/>
<stop offset="1"/>
</linearGradient>
<linearGradient id="paint6_linear_0_308" x1="768.5" y1="0" x2="768.5" y2="994.114" gradientUnits="userSpaceOnUse">
<stop stop-color="white"/>
<stop offset="1"/>
</linearGradient>
<linearGradient id="paint7_linear_0_308" x1="768.5" y1="0" x2="768.5" y2="994.114" gradientUnits="userSpaceOnUse">
<stop stop-color="white"/>
<stop offset="1"/>
</linearGradient>
<linearGradient id="paint8_linear_0_308" x1="768.5" y1="0" x2="768.5" y2="994.114" gradientUnits="userSpaceOnUse">
<stop stop-color="white"/>
<stop offset="1"/>
</linearGradient>
<linearGradient id="paint9_linear_0_308" x1="768.5" y1="0" x2="768.5" y2="994.114" gradientUnits="userSpaceOnUse">
<stop stop-color="white"/>
<stop offset="1"/>
</linearGradient>
<linearGradient id="paint10_linear_0_308" x1="768.5" y1="0" x2="768.5" y2="994.114" gradientUnits="userSpaceOnUse">
<stop stop-color="white"/>
<stop offset="1"/>
</linearGradient>
<linearGradient id="paint11_linear_0_308" x1="768.5" y1="0" x2="768.5" y2="994.114" gradientUnits="userSpaceOnUse">
<stop stop-color="white"/>
<stop offset="1"/>
</linearGradient>
<linearGradient id="paint12_linear_0_308" x1="768.5" y1="0" x2="768.5" y2="994.114" gradientUnits="userSpaceOnUse">
<stop stop-color="white"/>
<stop offset="1"/>
</linearGradient>
<linearGradient id="paint13_linear_0_308" x1="768.5" y1="0" x2="768.5" y2="994.114" gradientUnits="userSpaceOnUse">
<stop stop-color="white"/>
<stop offset="1"/>
</linearGradient>
<linearGradient id="paint14_linear_0_308" x1="768.5" y1="0" x2="768.5" y2="994.114" gradientUnits="userSpaceOnUse">
<stop stop-color="white"/>
<stop offset="1"/>
</linearGradient>
<linearGradient id="paint15_linear_0_308" x1="768.5" y1="0" x2="768.5" y2="994.114" gradientUnits="userSpaceOnUse">
<stop stop-color="white"/>
<stop offset="1"/>
</linearGradient>
<linearGradient id="paint16_linear_0_308" x1="768.5" y1="0" x2="768.5" y2="994.114" gradientUnits="userSpaceOnUse">
<stop stop-color="white"/>
<stop offset="1"/>
</linearGradient>
<linearGradient id="paint17_linear_0_308" x1="768.5" y1="0" x2="768.5" y2="994.114" gradientUnits="userSpaceOnUse">
<stop stop-color="white"/>
<stop offset="1"/>
</linearGradient>
<linearGradient id="paint18_linear_0_308" x1="768.5" y1="0" x2="768.5" y2="994.114" gradientUnits="userSpaceOnUse">
<stop stop-color="white"/>
<stop offset="1"/>
</linearGradient>
<linearGradient id="paint19_linear_0_308" x1="768.5" y1="0" x2="768.5" y2="994.114" gradientUnits="userSpaceOnUse">
<stop stop-color="white"/>
<stop offset="1"/>
</linearGradient>
<linearGradient id="paint20_linear_0_308" x1="768.5" y1="0" x2="768.5" y2="994.114" gradientUnits="userSpaceOnUse">
<stop stop-color="white"/>
<stop offset="1"/>
</linearGradient>
<linearGradient id="paint21_linear_0_308" x1="768.5" y1="0" x2="768.5" y2="994.114" gradientUnits="userSpaceOnUse">
<stop stop-color="white"/>
<stop offset="1"/>
</linearGradient>
<linearGradient id="paint22_linear_0_308" x1="768.5" y1="0" x2="768.5" y2="994.114" gradientUnits="userSpaceOnUse">
<stop stop-color="white"/>
<stop offset="1"/>
</linearGradient>
<linearGradient id="paint23_linear_0_308" x1="768.5" y1="0" x2="768.5" y2="994.114" gradientUnits="userSpaceOnUse">
<stop stop-color="white"/>
<stop offset="1"/>
</linearGradient>
<linearGradient id="paint24_linear_0_308" x1="768.5" y1="0" x2="768.5" y2="994.114" gradientUnits="userSpaceOnUse">
<stop stop-color="white"/>
<stop offset="1"/>
</linearGradient>
<linearGradient id="paint25_linear_0_308" x1="768.5" y1="0" x2="768.5" y2="994.114" gradientUnits="userSpaceOnUse">
<stop stop-color="white"/>
<stop offset="1"/>
</linearGradient>
<linearGradient id="paint26_linear_0_308" x1="768.5" y1="0" x2="768.5" y2="994.114" gradientUnits="userSpaceOnUse">
<stop stop-color="white"/>
<stop offset="1"/>
</linearGradient>
<linearGradient id="paint27_linear_0_308" x1="768.5" y1="0" x2="768.5" y2="994.114" gradientUnits="userSpaceOnUse">
<stop stop-color="white"/>
<stop offset="1"/>
</linearGradient>
<linearGradient id="paint28_linear_0_308" x1="768.5" y1="0" x2="768.5" y2="994.114" gradientUnits="userSpaceOnUse">
<stop stop-color="white"/>
<stop offset="1"/>
</linearGradient>
<linearGradient id="paint29_linear_0_308" x1="768.5" y1="0" x2="768.5" y2="994.114" gradientUnits="userSpaceOnUse">
<stop stop-color="white"/>
<stop offset="1"/>
</linearGradient>
<linearGradient id="paint30_linear_0_308" x1="768.5" y1="0" x2="768.5" y2="994.114" gradientUnits="userSpaceOnUse">
<stop stop-color="white"/>
<stop offset="1"/>
</linearGradient>
<linearGradient id="paint31_linear_0_308" x1="768.5" y1="0" x2="768.5" y2="994.114" gradientUnits="userSpaceOnUse">
<stop stop-color="white"/>
<stop offset="1"/>
</linearGradient>
<linearGradient id="paint32_linear_0_308" x1="768.5" y1="0" x2="768.5" y2="994.114" gradientUnits="userSpaceOnUse">
<stop stop-color="white"/>
<stop offset="1"/>
</linearGradient>
<linearGradient id="paint33_linear_0_308" x1="768.5" y1="0" x2="768.5" y2="994.114" gradientUnits="userSpaceOnUse">
<stop stop-color="white"/>
<stop offset="1"/>
</linearGradient>
<linearGradient id="paint34_linear_0_308" x1="768.5" y1="0" x2="768.5" y2="994.114" gradientUnits="userSpaceOnUse">
<stop stop-color="white"/>
<stop offset="1"/>
</linearGradient>
<linearGradient id="paint35_linear_0_308" x1="768.5" y1="0" x2="768.5" y2="994.114" gradientUnits="userSpaceOnUse">
<stop stop-color="white"/>
<stop offset="1"/>
</linearGradient>
<linearGradient id="paint36_linear_0_308" x1="768.5" y1="0" x2="768.5" y2="994.114" gradientUnits="userSpaceOnUse">
<stop stop-color="white"/>
<stop offset="1"/>
</linearGradient>
<linearGradient id="paint37_linear_0_308" x1="768.5" y1="0" x2="768.5" y2="994.114" gradientUnits="userSpaceOnUse">
<stop stop-color="white"/>
<stop offset="1"/>
</linearGradient>
<linearGradient id="paint38_linear_0_308" x1="768.5" y1="0" x2="768.5" y2="994.114" gradientUnits="userSpaceOnUse">
<stop stop-color="white"/>
<stop offset="1"/>
</linearGradient>
<linearGradient id="paint39_linear_0_308" x1="768.5" y1="0" x2="768.5" y2="994.114" gradientUnits="userSpaceOnUse">
<stop stop-color="white"/>
<stop offset="1"/>
</linearGradient>
<linearGradient id="paint40_linear_0_308" x1="768.5" y1="0" x2="768.5" y2="994.114" gradientUnits="userSpaceOnUse">
<stop stop-color="white"/>
<stop offset="1"/>
</linearGradient>
<linearGradient id="paint41_linear_0_308" x1="768.5" y1="0" x2="768.5" y2="994.114" gradientUnits="userSpaceOnUse">
<stop stop-color="white"/>
<stop offset="1"/>
</linearGradient>
<linearGradient id="paint42_linear_0_308" x1="768.5" y1="0" x2="768.5" y2="994.114" gradientUnits="userSpaceOnUse">
<stop stop-color="white"/>
<stop offset="1"/>
</linearGradient>
<linearGradient id="paint43_linear_0_308" x1="768.5" y1="0" x2="768.5" y2="994.114" gradientUnits="userSpaceOnUse">
<stop stop-color="white"/>
<stop offset="1"/>
</linearGradient>
<linearGradient id="paint44_linear_0_308" x1="768.5" y1="0" x2="768.5" y2="994.114" gradientUnits="userSpaceOnUse">
<stop stop-color="white"/>
<stop offset="1"/>
</linearGradient>
<linearGradient id="paint45_linear_0_308" x1="768.5" y1="0" x2="768.5" y2="994.114" gradientUnits="userSpaceOnUse">
<stop stop-color="white"/>
<stop offset="1"/>
</linearGradient>
<linearGradient id="paint46_linear_0_308" x1="768.5" y1="0" x2="768.5" y2="994.114" gradientUnits="userSpaceOnUse">
<stop stop-color="white"/>
<stop offset="1"/>
</linearGradient>
<linearGradient id="paint47_linear_0_308" x1="768.5" y1="0" x2="768.5" y2="994.114" gradientUnits="userSpaceOnUse">
<stop stop-color="white"/>
<stop offset="1"/>
</linearGradient>
<linearGradient id="paint48_linear_0_308" x1="768.5" y1="0" x2="768.5" y2="994.114" gradientUnits="userSpaceOnUse">
<stop stop-color="white"/>
<stop offset="1"/>
</linearGradient>
<linearGradient id="paint49_linear_0_308" x1="768.5" y1="0" x2="768.5" y2="994.114" gradientUnits="userSpaceOnUse">
<stop stop-color="white"/>
<stop offset="1"/>
</linearGradient>
<linearGradient id="paint50_linear_0_308" x1="768.5" y1="0" x2="768.5" y2="994.114" gradientUnits="userSpaceOnUse">
<stop stop-color="white"/>
<stop offset="1"/>
</linearGradient>
<linearGradient id="paint51_linear_0_308" x1="768.5" y1="0" x2="768.5" y2="994.114" gradientUnits="userSpaceOnUse">
<stop stop-color="white"/>
<stop offset="1"/>
</linearGradient>
</defs>
</svg>
