<svg preserveAspectRatio="none" width="100%" height="100%" overflow="visible" style="display: block;" viewBox="0 0 272.83 347.362" fill="none" xmlns="http://www.w3.org/2000/svg">
<g id="Group">
<path id="Vector" fill-rule="evenodd" clip-rule="evenodd" d="M260.037 0.0623954C258.803 0.175858 247.84 2.1189 246.521 2.38838L94.7647 33.0091L94.7079 33.0233C90.7509 33.8601 87.6449 35.2642 85.248 37.2781C82.3547 39.7034 80.7521 43.1356 80.1422 47.1352C80.0146 47.9862 79.8018 49.7165 79.8018 52.2694C79.8018 52.2694 79.8018 207.316 79.8018 242.206C79.8018 246.645 79.4472 250.957 76.4405 254.63C73.4337 258.303 69.7178 259.41 65.3637 260.289C62.0591 260.955 58.7545 261.622 55.4499 262.289C42.9123 264.813 34.7571 266.529 27.3679 269.394C20.3048 272.132 15.0147 275.621 10.8024 280.046C2.44867 288.796 -0.941025 300.667 0.221967 311.787C1.21476 321.275 5.4838 330.352 12.8163 337.06C17.7661 341.599 23.9498 345.045 31.2398 346.506C38.7993 348.024 46.8551 347.499 58.6268 345.116C64.8957 343.854 70.7673 341.883 76.3554 338.578C81.8867 335.316 86.6237 330.962 90.3255 325.658C94.0414 320.339 96.4383 314.425 97.7573 308.142C99.1188 301.66 99.445 295.803 99.445 289.335V124.602C99.445 115.78 101.941 113.454 109.061 111.724C109.061 111.724 235.203 86.2798 241.089 85.131C249.301 83.5567 253.173 85.8968 253.173 94.5058V206.961C253.173 211.415 253.13 215.925 250.095 219.613C247.088 223.286 243.372 224.392 239.018 225.271C235.714 225.938 232.409 226.605 229.104 227.271C216.567 229.796 208.412 231.512 201.022 234.377C193.959 237.114 188.669 240.603 184.457 245.028C176.103 253.779 172.416 265.65 173.579 276.769C174.571 286.258 179.138 295.335 186.471 302.043C191.421 306.582 197.604 309.929 204.894 311.404C212.454 312.921 220.51 312.382 232.281 310.014C238.55 308.752 244.422 306.865 250.01 303.561C255.541 300.299 260.278 295.944 263.98 290.64C267.696 285.322 270.093 279.407 271.412 273.124C272.773 266.643 272.83 260.785 272.83 254.318V13.4793C272.858 4.74273 268.249 -0.646746 260.037 0.0623954Z" fill="var(--fill-0, white)"/>
</g>
</svg>
