<svg preserveAspectRatio="none" width="100%" height="100%" overflow="visible" style="display: block;" viewBox="0 0 32 15" fill="none" xmlns="http://www.w3.org/2000/svg">
<g id="Group 7">
<g id="Vector">
<path d="M30.0227 7.97697C30.03 7.40202 30.1802 6.8383 30.4592 6.33824C30.7383 5.83818 31.1372 5.41803 31.6189 5.11689C31.3129 4.67248 30.9092 4.30675 30.44 4.04875C29.9707 3.79075 29.4487 3.64758 28.9155 3.63061C27.7781 3.5092 26.6755 4.32277 26.0959 4.32277C25.5051 4.32277 24.6127 3.64267 23.6517 3.66277C23.0301 3.68319 22.4244 3.86701 21.8934 4.19631C21.3625 4.52562 20.9245 4.98917 20.6221 5.54182C19.3121 7.84832 20.2892 11.2381 21.544 13.1025C22.1719 14.0154 22.9056 15.0352 23.8657 14.9991C24.8052 14.9594 25.1561 14.3898 26.2901 14.3898C27.4137 14.3898 27.7429 14.9991 28.7224 14.9761C29.7306 14.9594 30.3657 14.0591 30.9715 13.1375C31.4226 12.487 31.7697 11.768 32 11.0073C31.4143 10.7553 30.9145 10.3336 30.5629 9.79477C30.2113 9.2559 30.0234 8.62369 30.0227 7.97697Z" fill="var(--fill-0, white)"/>
<path d="M28.1725 2.40445C28.7222 1.73339 28.993 0.870845 28.9274 0C28.0876 0.0897001 27.3119 0.497874 26.7548 1.14319C26.4824 1.45845 26.2738 1.82521 26.1409 2.22251C26.0079 2.6198 25.9533 3.03985 25.9801 3.45863C26.4002 3.46303 26.8157 3.37044 27.1955 3.18784C27.5752 3.00524 27.9093 2.73738 28.1725 2.40445Z" fill="var(--fill-0, white)"/>
</g>
<g id="Vector_2">
<path d="M6.0694 7.16378L0.0551637 13.7537C0.0557285 13.7549 0.0557284 13.7561 0.0562933 13.7572C0.240443 14.4734 0.873669 15 1.62495 15C1.92547 15 2.20734 14.916 2.44911 14.7691L2.46831 14.7574L9.23779 10.7247L6.0694 7.16378Z" fill="#EB4335"/>
<path d="M12.1544 6.04179L12.1487 6.0377L9.22606 4.28816L5.9334 7.31312L9.23736 10.7236L12.1448 8.99211C12.6543 8.7081 13 8.15349 13 7.51374C13 6.87865 12.6588 6.32638 12.1544 6.04179Z" fill="#FABC13"/>
<path d="M0.0553576 1.24624C0.0192055 1.38387 0 1.52792 0 1.67779V13.3222C0 13.4721 0.0184467 13.6167 0.0551637 13.7537L6.27634 7.33233L0.0553576 1.24624Z" fill="#0088FF"/>
<path d="M6.11346 7.49973L9.22649 4.28697L2.46436 0.239688C2.21864 0.0874775 1.93225 0 1.62495 0C0.873669 0 0.239878 0.52778 0.0551637 1.24451L0.0553576 1.24624L6.11346 7.49973Z" fill="var(--fill-0, #30A851)"/>
</g>
</g>
</svg>
