<svg preserveAspectRatio="none" width="100%" height="100%" overflow="visible" style="display: block;" viewBox="0 0 58.3784 27.3649" fill="none" xmlns="http://www.w3.org/2000/svg">
<g id="Group 7">
<g id="Vector">
<path d="M54.7712 14.5526C54.7845 13.5037 55.0584 12.4753 55.5675 11.563C56.0767 10.6507 56.8044 9.88425 57.6831 9.33487C57.1249 8.52413 56.3885 7.85692 55.5324 7.38624C54.6763 6.91555 53.7241 6.65436 52.7513 6.62341C50.6763 6.40192 48.6647 7.88614 47.6073 7.88614C46.5295 7.88614 44.9015 6.64541 43.1484 6.68209C42.0145 6.71934 40.9093 7.05469 39.9407 7.65544C38.9721 8.2562 38.173 9.10187 37.6213 10.1101C35.2315 14.3179 37.0141 20.5019 39.3033 23.9032C40.4487 25.5687 41.7873 27.4291 43.5388 27.3632C45.2527 27.2909 45.8929 26.2517 47.9618 26.2517C50.0114 26.2517 50.612 27.3632 52.3991 27.3212C54.2382 27.2909 55.397 25.6483 56.5021 23.967C57.3251 22.7803 57.9583 21.4687 58.3784 20.0808C57.3099 19.6212 56.3981 18.8519 55.7566 17.8688C55.1151 16.8858 54.7724 15.7324 54.7712 14.5526Z" fill="var(--fill-0, white)"/>
<path d="M51.3958 4.3865C52.3986 3.16226 52.8926 1.5887 52.773 0C51.2409 0.163642 49.8258 0.908284 48.8094 2.08556C48.3125 2.66068 47.9319 3.32977 47.6894 4.05457C47.4469 4.77937 47.3473 5.54567 47.3962 6.30966C48.1625 6.31769 48.9206 6.14878 49.6134 5.81565C50.3061 5.48253 50.9156 4.99388 51.3958 4.3865Z" fill="var(--fill-0, white)"/>
</g>
<g id="Vector_2">
<path d="M11.0726 13.0691L0.100636 25.0913C0.101667 25.0934 0.101667 25.0955 0.102697 25.0977C0.438646 26.4042 1.59386 27.3649 2.96444 27.3649C3.51268 27.3649 4.02691 27.2117 4.46797 26.9436L4.50301 26.9223L16.8527 19.5653L11.0726 13.0691Z" fill="#EB4335"/>
<path d="M22.1735 11.0222L22.1632 11.0147L16.8313 7.82299L10.8245 13.3415L16.8519 19.5633L22.156 16.4045C23.0855 15.8864 23.7162 14.8746 23.7162 13.7075C23.7162 12.5489 23.0938 11.5414 22.1735 11.0222Z" fill="#FABC13"/>
<path d="M0.10099 2.27355C0.0350371 2.52463 0 2.78742 0 3.06084V24.304C0 24.5775 0.0336528 24.8413 0.100636 25.0913L11.4501 13.3766L0.10099 2.27355Z" fill="#0088FF"/>
<path d="M11.1529 13.6819L16.8321 7.82084L4.49579 0.437269C4.04752 0.159587 3.52505 0 2.96444 0C1.59386 0 0.437616 0.962843 0.100636 2.27039L0.10099 2.27355L11.1529 13.6819Z" fill="var(--fill-0, #30A851)"/>
</g>
</g>
</svg>
