<svg preserveAspectRatio="none" width="100%" height="100%" overflow="visible" style="display: block;" viewBox="0 0 64 31.2537" fill="none" xmlns="http://www.w3.org/2000/svg">
<g id="Group 22">
<g id="Union (Stroke)">
</g>
<g id="Union">
<path d="M31.7933 18.78C31.9052 19.1121 32.4455 19.5239 32.7708 19.7259C35.3535 21.3292 34.1087 27.159 32.1298 28.9346L32.0609 29.1151C32.0008 29.2654 31.953 29.3421 31.8141 29.5308L31.6154 29.4921C30.2687 28.1173 27.4063 21.6493 30.1266 20.7861L30.226 20.517C30.506 19.8674 31.1091 19.0894 31.6074 18.722L31.7933 18.78Z" fill="var(--fill-0, white)"/>
<path d="M51.4295 9.48911C53.2053 8.67302 53.7964 8.40801 54.9503 10.219C55.8623 11.9694 55.9849 12.6817 55.9487 14.597C55.6634 14.9079 55.3914 15.1511 55.2404 15.5364L55.3125 15.6541C55.5984 15.4841 55.6985 15.4037 56.0176 15.3253C56.2499 15.6358 56.2078 16.4489 56.1458 16.819C55.8461 18.6056 54.6534 19.7632 53.2276 20.7668L53.0721 20.8764C53.8396 20.5524 55.1668 20.0355 55.8221 19.6083C55.3634 21.3991 54.9082 22.2987 53.2468 23.4754C52.7431 23.8318 51.8306 23.9422 51.3397 24.3971C51.7384 24.3993 51.8056 24.2784 52.1314 24.2392C52.5211 24.1924 53.0735 24.2124 53.4744 24.2215C52.758 24.9307 51.6239 26.1065 50.5753 26.2356C50.2003 26.6132 49.9169 26.9617 49.3926 27.1025L49.1202 27.2331C46.3645 28.4861 42.3396 27.9913 40.0032 26.0826L39.7756 25.886C38.2218 24.4776 37.7371 23.6389 36.9295 21.7964C36.9604 22.6421 37.1711 23.8321 37.3013 24.6984C35.7307 22.7593 35.0409 20.8984 34.0785 18.6431C35.0998 18.5814 35.7873 18.1872 36.9038 18.0292C37.6019 19.3214 38.6078 20.431 39.8349 21.2631C41.7481 22.5421 44.1115 23.0025 46.3782 22.536C51.3222 21.5645 53.52 16.6438 52.6234 12.1204C52.2841 11.1188 52.0697 10.3623 51.4295 9.48911Z" fill="var(--fill-0, white)"/>
<path d="M8.67628 10.103C9.50786 8.45546 10.5608 8.48238 11.9391 9.53262C11.3504 10.5176 11.1658 10.9637 10.9199 12.1188C10.0929 15.3851 11.3889 19.4016 14.2756 21.3098C18.572 24.1494 24.3514 22.5281 26.5224 17.9147C27.3448 18.1531 28.5668 18.5992 29.3478 18.6656C28.4302 20.871 27.8255 22.5671 26.3654 24.4857C26.3924 23.6777 26.4477 22.7409 26.4439 21.9431C25.6621 23.8096 24.8741 24.9695 23.2083 26.2308C21.4288 27.7048 19.2896 27.9703 17.1058 27.8776L16.1683 27.818C15.3121 27.6597 14.8318 27.4941 14.0593 27.109C13.5482 26.9332 13.1483 26.5155 12.7452 26.1519C12.1594 25.8495 10.6181 24.9105 10.4231 24.3101C10.9071 24.0259 11.9208 24.5003 12.266 24.3987C11.8241 24.0848 11.0516 23.9592 10.5272 23.635C8.74842 22.5345 8.19751 21.3654 7.66346 19.5374C8.63667 20.0922 9.5438 20.4522 10.5737 20.8812C9.45896 20.1251 8.63069 19.4797 7.91346 18.2934C7.5786 17.7393 6.7991 15.8175 7.59776 15.3898C7.83745 15.5579 7.97073 15.6845 8.25641 15.7314C8.25307 15.4692 7.66482 14.6042 7.49038 14.3215C7.45389 12.7788 7.93473 11.4497 8.67628 10.103Z" fill="var(--fill-0, white)"/>
<path d="M49.8077 10.7701C50.7322 12.2 50.9058 12.5959 50.899 14.3167C50.9908 16.9605 49.5631 19.4369 47.0673 20.5315C45.4833 21.2147 43.6849 21.2433 42.0785 20.6121C40.487 19.9893 39.4063 18.904 38.734 17.3766C39.3451 16.7384 39.778 16.4566 40.5304 16.0198C40.5518 16.0623 40.575 16.1052 40.5978 16.1471C41.1547 17.1726 41.9685 18.1911 43.1587 18.4465C46.325 19.1253 47.6136 16.6922 48.3029 14.3457C48.1917 13.6319 47.851 12.5085 47.5337 11.8497C48.2392 11.4792 49.0642 11.0399 49.8077 10.7701Z" fill="var(--fill-0, white)"/>
<path d="M15.7869 11.7546C15.5815 12.6699 15.3441 13.4928 15.3798 14.4327C15.4333 14.7637 15.4977 15.0932 15.5721 15.4204C16.4802 19.3092 20.8714 19.7091 23.0417 16.0247C23.6738 16.5107 24.0756 16.8256 24.6538 17.3846C23.507 19.744 21.5997 21.116 18.859 21.0601C17.1567 21.0153 15.5397 20.3154 14.3622 19.1104C13.0756 17.7944 12.5315 16.0974 12.5641 14.3021C12.5242 12.7129 12.8742 12.0984 13.6298 10.7266C14.3517 11.0629 15.0712 11.4059 15.7869 11.7546Z" fill="var(--fill-0, white)"/>
<path d="M58.7772 2.61035C56.6765 4.51385 49.8526 8.28704 47.0256 10.0563C44.9196 11.3843 42.8221 12.726 40.7324 14.0782C38.1124 15.7768 34.7895 18.7698 31.7372 16.5435C29.9358 17.731 28.6143 17.7248 26.6971 16.5983C23.1856 14.5345 19.8965 12.1026 16.4167 9.9854C13.675 8.21388 6.8486 4.6911 4.69231 2.61841C12.3369 3.83979 15.8343 4.89353 22.1939 9.64219C22.8751 10.4136 28.6955 14.6468 29.6811 15.2802C29.2783 14.5583 28.6974 13.798 28.2099 13.1178C29.3159 13.7928 30.5592 14.5453 31.5513 15.3705C32.7036 14.6731 33.652 13.9857 34.7099 13.1646C34.3375 14.3203 34.099 14.5786 33.3942 15.5654C33.8475 15.2846 34.2803 14.9784 34.6987 14.6502C36.9199 12.9086 39.2133 11.2535 41.4263 9.502L43.0962 8.29673C48.8667 4.09905 52.254 3.88743 58.7772 2.61035Z" fill="var(--fill-0, white)"/>
<path d="M17.2756 12.375C18.3914 13.0923 19.5026 13.8332 20.6314 14.5857L20.6506 14.5986C20.9824 14.8198 21.3189 15.0376 21.6538 15.2593C20.8137 16.6759 19.7169 17.0739 18.9712 17.0108C18.2717 16.9515 17.446 16.454 17.1234 15.074H17.1202C17.0617 14.8158 17.012 14.5547 16.9679 14.2941C16.9581 13.7074 17.0874 13.1944 17.2756 12.375Z" fill="var(--fill-0, white)"/>
<path d="M46.0945 12.5152C46.2995 12.9407 46.5347 13.6837 46.6619 14.2522C46.3533 15.2074 45.9829 15.9741 45.5128 16.4517C45.0974 16.8729 44.5475 17.1502 43.4984 16.9254C43.1483 16.85 42.7697 16.5676 42.3862 16.0343L42.0016 15.4172L41.8894 15.198C43.2859 14.2955 44.6878 13.4005 46.0913 12.5087L46.0945 12.5152Z" fill="var(--fill-0, white)"/>
</g>
</g>
</svg>
