<svg preserveAspectRatio="none" width="100%" height="100%" overflow="visible" style="display: block;" viewBox="0 0 600.216 293.109" fill="none" xmlns="http://www.w3.org/2000/svg">
<g id="Group 22">
<g id="Union (Stroke)">
</g>
<g id="Union">
<path d="M298.169 176.126C299.219 179.24 304.286 183.102 307.337 184.997C331.559 200.033 319.884 254.708 301.325 271.36L300.679 273.052C300.116 274.462 299.667 275.181 298.365 276.951L296.501 276.588C283.871 263.695 257.027 203.036 282.539 194.94L283.47 192.417C286.097 186.324 291.753 179.028 296.426 175.582L298.169 176.126Z" fill="var(--fill-0, white)"/>
<path d="M482.325 88.9925C498.98 81.3389 504.523 78.8534 515.345 95.8381C523.898 112.254 525.048 118.933 524.708 136.896C522.033 139.812 519.481 142.093 518.065 145.706L518.742 146.81C521.422 145.216 522.362 144.462 525.354 143.727C527.533 146.639 527.138 154.264 526.557 157.735C523.746 174.49 512.56 185.347 499.188 194.759L497.73 195.786C504.928 192.748 517.375 187.9 523.521 183.894C519.219 200.689 514.95 209.126 499.369 220.162C494.644 223.504 486.087 224.539 481.484 228.805C485.222 228.825 485.852 227.692 488.908 227.324C492.563 226.885 497.743 227.073 501.503 227.158C494.784 233.81 484.149 244.837 474.314 246.048C470.797 249.589 468.139 252.857 463.223 254.178L460.668 255.402C434.824 267.153 397.077 262.513 375.165 244.612L373.031 242.769C358.459 229.561 353.913 221.695 346.339 204.415C346.628 212.346 348.605 223.506 349.826 231.631C335.096 213.445 328.626 195.993 319.601 174.842C329.179 174.264 335.627 170.567 346.098 169.084C352.644 181.203 362.078 191.61 373.587 199.413C391.529 211.408 413.695 215.726 434.952 211.351C481.319 202.24 501.93 156.092 493.522 113.67C490.34 104.276 488.33 97.1811 482.325 88.9925Z" fill="var(--fill-0, white)"/>
<path d="M81.3695 94.75C89.1683 79.2985 99.0431 79.551 111.969 89.4005C106.448 98.6385 104.717 102.822 102.411 113.655C94.6554 144.287 106.81 181.956 133.882 199.852C174.175 226.482 228.376 211.277 248.737 168.011C256.45 170.247 267.91 174.431 275.234 175.053C266.629 195.736 260.958 211.642 247.265 229.637C247.518 222.059 248.037 213.273 248.001 205.79C240.669 223.296 233.279 234.173 217.657 246.002C200.967 259.826 180.906 262.316 160.424 261.447L151.632 260.887C143.602 259.403 139.098 257.85 131.853 254.238C127.06 252.59 123.31 248.672 119.529 245.262C114.035 242.426 99.5801 233.62 97.7516 227.989C102.291 225.324 111.797 229.773 115.035 228.821C110.891 225.876 103.646 224.698 98.7285 221.658C82.046 211.337 76.8794 200.372 71.8708 183.229C80.998 188.432 89.5053 191.809 99.1643 195.832C88.7097 188.741 80.9419 182.688 74.2154 171.563C71.075 166.366 63.7645 148.342 71.2546 144.331C73.5025 145.908 74.7525 147.095 77.4317 147.535C77.4004 145.076 71.8836 136.963 70.2477 134.312C69.9054 119.844 74.4149 107.38 81.3695 94.75Z" fill="var(--fill-0, white)"/>
<path d="M467.115 101.006C475.786 114.417 477.414 118.13 477.35 134.267C478.211 159.062 464.821 182.286 441.415 192.553C426.559 198.96 409.693 199.228 394.628 193.308C379.703 187.467 369.567 177.289 363.262 162.964C368.993 156.979 373.053 154.336 380.11 150.24C380.31 150.639 380.528 151.04 380.741 151.434C385.964 161.051 393.596 170.603 404.758 172.998C434.453 179.364 446.538 156.546 453.003 134.539C451.96 127.845 448.765 117.309 445.789 111.131C452.405 107.657 460.142 103.536 467.115 101.006Z" fill="var(--fill-0, white)"/>
<path d="M148.055 110.239C146.129 118.823 143.902 126.54 144.238 135.355C144.739 138.459 145.344 141.55 146.041 144.618C154.558 181.089 195.74 184.839 216.093 150.285C222.022 154.844 225.791 157.797 231.213 163.04C220.458 185.167 202.57 198.034 176.867 197.509C160.902 197.09 145.737 190.525 134.694 179.224C122.628 166.882 117.525 150.968 117.831 134.131C117.457 119.226 120.739 113.463 127.825 100.598C134.596 103.752 141.343 106.968 148.055 110.239Z" fill="var(--fill-0, white)"/>
<path d="M551.235 24.4809C531.534 42.3326 467.537 77.719 441.024 94.3118C421.273 106.766 401.602 119.349 382.004 132.03C357.433 147.961 326.269 176.03 297.643 155.151C280.749 166.288 268.355 166.23 250.376 155.665C217.443 136.31 186.597 113.503 153.962 93.6469C128.25 77.0328 64.2288 43.9949 44.0062 24.5564C115.7 36.011 148.5 45.8934 208.143 90.4281C214.532 97.6624 269.118 137.363 278.36 143.304C274.583 136.533 269.135 129.403 264.563 123.024C274.935 129.354 286.596 136.411 295.9 144.15C306.706 137.61 315.601 131.163 325.523 123.462C322.03 134.301 319.793 136.724 313.184 145.978C317.435 143.344 321.493 140.473 325.418 137.395C346.249 121.062 367.757 105.54 388.511 89.1134L404.172 77.8099C458.29 38.4425 490.058 36.4578 551.235 24.4809Z" fill="var(--fill-0, white)"/>
<path d="M162.017 116.057C172.482 122.785 182.902 129.733 193.489 136.791L193.67 136.912C196.781 138.985 199.937 141.028 203.078 143.107C195.199 156.393 184.912 160.125 177.919 159.534C171.359 158.977 163.615 154.312 160.59 141.369H160.56C160.011 138.948 159.545 136.5 159.132 134.055C159.04 128.553 160.252 123.742 162.017 116.057Z" fill="var(--fill-0, white)"/>
<path d="M432.292 117.372C434.214 121.363 436.42 128.331 437.613 133.662C434.718 142.62 431.245 149.811 426.836 154.29C422.941 158.24 417.783 160.841 407.944 158.733C404.661 158.025 401.111 155.377 397.514 150.376L393.907 144.588L392.855 142.533C405.951 134.068 419.099 125.675 432.262 117.312L432.292 117.372Z" fill="var(--fill-0, white)"/>
</g>
</g>
</svg>
