<svg preserveAspectRatio="none" width="100%" height="100%" overflow="visible" style="display: block;" viewBox="0 0 80 29" fill="none" xmlns="http://www.w3.org/2000/svg">
<g id="finilo-text">
<path d="M5.04149 28.4369V12.3883H0V8.56727H5.04149V4.54508C5.04149 3.23116 5.39796 2.1988 6.1109 1.44799C6.8493 0.670365 7.81686 0.281552 9.01358 0.281552H13.5968V4.10263H10.4649C9.75198 4.10263 9.39551 4.50485 9.39551 5.30929V8.56727H17.4543V12.3883H9.39551V28.4369H5.04149ZM17.4543 28.4369V8.56727H21.8083V28.4369H17.4543ZM19.6313 6.19417C18.8165 6.19417 18.129 5.91262 17.5688 5.34951C17.0087 4.78641 16.7286 4.04901 16.7286 3.13731C16.7286 2.25243 17.0087 1.52843 17.5688 0.965325C18.129 0.402218 18.8165 0.120664 19.6313 0.120664C20.4715 0.120664 21.159 0.402218 21.6937 0.965325C22.2539 1.52843 22.534 2.25243 22.534 3.13731C22.534 4.04901 22.2539 4.78641 21.6937 5.34951C21.159 5.91262 20.4715 6.19417 19.6313 6.19417Z" fill="var(--fill-0, white)"/>
<path d="M24.9935 28.4369V8.56727H29.3094V11.3426H29.9586C30.2896 10.5918 30.888 9.88118 31.7537 9.21082C32.6194 8.54045 33.9307 8.20527 35.6876 8.20527C37.1389 8.20527 38.4248 8.55386 39.5451 9.25104C40.6654 9.94822 41.5312 10.9135 42.1422 12.147C42.7788 13.3805 43.0971 14.8419 43.0971 16.5312V28.4369H38.7049V16.8932C38.7049 15.2843 38.3229 14.0911 37.5591 13.3135C36.8207 12.509 35.764 12.1068 34.389 12.1068C32.8359 12.1068 31.6137 12.6565 30.7225 13.7559C29.8313 14.8285 29.3857 16.3703 29.3857 18.3814V28.4369H24.9935Z" fill="var(--fill-0, white)"/>
<path d="M46.1042 28.4369V8.56727H50.4964V28.4369H46.1042ZM48.2812 6.03329C47.4919 6.03329 46.8044 5.76514 46.2188 5.22885C45.6586 4.66574 45.3785 3.92834 45.3785 3.01664C45.3785 2.10495 45.6586 1.38095 46.2188 0.844659C46.8044 0.281553 47.4919 0 48.2812 0C49.1214 0 49.8089 0.281553 50.3436 0.844659C50.9038 1.38095 51.1839 2.10495 51.1839 3.01664C51.1839 3.92834 50.9038 4.66574 50.3436 5.22885C49.8089 5.76514 49.1214 6.03329 48.2812 6.03329Z" fill="var(--fill-0, white)"/>
<path d="M53.6757 28.4369V0.281552H58.0679V28.4369H53.6757Z" fill="var(--fill-0, white)"/>
<path d="M70.1844 29C68.3002 29 66.6069 28.5978 65.1047 27.7933C63.6279 26.9621 62.4566 25.7957 61.5909 24.294C60.7507 22.7656 60.3305 20.9422 60.3305 18.8239V18.1803C60.3305 16.062 60.7507 14.2386 61.5909 12.7101C62.4566 11.1817 63.6279 10.0153 65.1047 9.21082C66.6069 8.40638 68.3002 8.00416 70.1844 8.00416C72.0686 8.00416 73.7491 8.40638 75.2259 9.21082C76.7027 10.0153 77.8612 11.1817 78.7014 12.7101C79.5671 14.2386 80 16.062 80 18.1803V18.8239C80 20.9422 79.5671 22.7656 78.7014 24.294C77.8612 25.7957 76.7027 26.9621 75.2259 27.7933C73.7491 28.5978 72.0686 29 70.1844 29ZM70.1844 24.8974C71.7885 24.8974 73.0998 24.3611 74.1183 23.2885C75.1367 22.1891 75.646 20.6607 75.646 18.7032V18.301C75.646 16.3435 75.1367 14.8285 74.1183 13.7559C73.0998 12.6565 71.7885 12.1068 70.1844 12.1068C68.5803 12.1068 67.269 12.6565 66.2505 13.7559C65.232 14.8285 64.7227 16.3435 64.7227 18.301V18.7032C64.7227 20.6607 65.232 22.1891 66.2505 23.2885C67.269 24.3611 68.5803 24.8974 70.1844 24.8974Z" fill="var(--fill-0, white)"/>
</g>
</svg>
