<svg preserveAspectRatio="none" width="100%" height="100%" overflow="visible" style="display: block;" viewBox="0 0 750.27 271.973" fill="none" xmlns="http://www.w3.org/2000/svg">
<g id="finilo-text">
<path d="M47.281 266.692V116.183H0V80.3471H47.281V42.6254C47.281 30.303 50.6241 20.6212 57.3104 13.5798C64.2354 6.28693 73.3095 2.6405 84.5328 2.6405H127.516V38.4761H98.144C91.4578 38.4761 88.1147 42.2482 88.1147 49.7925V80.3471H163.693V116.183H88.1147V266.692H47.281ZM163.693 266.692V80.3471H204.526V266.692H163.693ZM184.11 58.0913C176.468 58.0913 170.021 55.4508 164.767 50.1698C159.514 44.8887 156.887 37.9731 156.887 29.4229C156.887 21.1241 159.514 14.3342 164.767 9.05319C170.021 3.77215 176.468 1.13163 184.11 1.13163C191.99 1.13163 198.437 3.77215 203.452 9.05319C208.705 14.3342 211.332 21.1241 211.332 29.4229C211.332 37.9731 208.705 44.8887 203.452 50.1698C198.437 55.4508 191.99 58.0913 184.11 58.0913Z" fill="var(--fill-0, white)"/>
<path d="M234.399 266.692V80.3471H274.874V106.375H280.963C284.068 99.3336 289.679 92.6695 297.798 86.3825C305.917 80.0956 318.215 76.9521 334.692 76.9521C348.303 76.9521 360.362 80.2213 370.869 86.7597C381.376 93.2982 389.495 102.351 395.226 113.919C401.196 125.487 404.181 139.193 404.181 155.036V266.692H362.989V158.431C362.989 143.342 359.407 132.151 352.243 124.859C345.318 117.314 335.408 113.542 322.513 113.542C307.947 113.542 296.485 118.697 288.127 129.008C279.769 139.067 275.591 153.527 275.591 172.388V266.692H234.399Z" fill="var(--fill-0, white)"/>
<path d="M432.383 266.692V80.3471H473.574V266.692H432.383ZM452.799 56.5824C445.397 56.5824 438.949 54.0677 433.457 49.0381C428.204 43.7571 425.577 36.8415 425.577 28.2912C425.577 19.741 428.204 12.9511 433.457 7.92153C438.949 2.64051 445.397 0 452.799 0C460.68 0 467.127 2.64051 472.142 7.92153C477.395 12.9511 480.022 19.741 480.022 28.2912C480.022 36.8415 477.395 43.7571 472.142 49.0381C467.127 54.0677 460.68 56.5824 452.799 56.5824Z" fill="var(--fill-0, white)"/>
<path d="M503.391 266.692V2.6405H544.583V266.692H503.391Z" fill="var(--fill-0, white)"/>
<path d="M658.216 271.973C640.545 271.973 624.665 268.201 610.576 260.656C596.726 252.861 585.742 241.921 577.623 227.839C569.743 213.504 565.803 196.404 565.803 176.537V170.502C565.803 150.635 569.743 133.535 577.623 119.2C585.742 104.866 596.726 93.9269 610.576 86.3825C624.665 78.8382 640.545 75.066 658.216 75.066C675.886 75.066 691.647 78.8382 705.497 86.3825C719.347 93.9269 730.212 104.866 738.092 119.2C746.211 133.535 750.27 150.635 750.27 170.502V176.537C750.27 196.404 746.211 213.504 738.092 227.839C730.212 241.921 719.347 252.861 705.497 260.656C691.647 268.201 675.886 271.973 658.216 271.973ZM658.216 233.497C673.259 233.497 685.557 228.467 695.109 218.408C704.661 208.098 709.437 193.763 709.437 175.406V171.633C709.437 153.276 704.661 139.067 695.109 129.008C685.557 118.697 673.259 113.542 658.216 113.542C643.172 113.542 630.874 118.697 621.322 129.008C611.77 139.067 606.994 153.276 606.994 171.633V175.406C606.994 193.763 611.77 208.098 621.322 218.408C630.874 228.467 643.172 233.497 658.216 233.497Z" fill="var(--fill-0, white)"/>
</g>
</svg>
