<svg preserveAspectRatio="none" width="100%" height="100%" overflow="visible" style="display: block;" viewBox="0 0 314.043 246" fill="none" xmlns="http://www.w3.org/2000/svg">
<g id="Mask group">
<mask id="mask0_0_259" style="mask-type:luminance" maskUnits="userSpaceOnUse" x="-1" y="0" width="316" height="247">
<g id="Group">
<path id="Vector" d="M314.043 246V-6.10352e-05L-0.000176442 -6.10352e-05L-0.000176442 246H314.043Z" fill="var(--fill-0, white)"/>
</g>
</mask>
<g mask="url(#mask0_0_259)">
<path id="Fill-1" fill-rule="evenodd" clip-rule="evenodd" d="M23.5714 209.3C-1.19442 202.208 -5.32363 187.464 5.96193 178.969C16.401 171.102 34.1582 165.208 34.1582 165.208L107.487 138.74V168.907L54.7198 188.083C45.3852 191.487 43.9595 196.288 51.5426 198.805C59.121 201.323 72.8335 200.604 82.1775 197.203L107.487 187.879V214.867C105.886 215.167 104.101 215.458 102.441 215.731C77.1221 219.94 50.1522 218.186 23.5714 209.3ZM178.277 212.439L260.556 182.687C269.9 179.283 271.326 174.484 263.743 171.966C256.16 169.447 242.443 170.164 233.103 173.57L178.277 193.175V161.978L181.445 160.887C181.445 160.887 197.284 155.198 219.56 152.701C241.835 150.209 269.117 153.037 290.525 161.271C314.665 169.014 317.38 180.421 311.244 188.281C305.11 196.136 290.08 201.735 290.08 201.735L178.277 242.504V212.439ZM187.898 19.6048C231.22 34.694 245.901 53.4871 245.901 95.8198C245.901 137.077 220.807 152.718 188.918 137.096V60.2093C188.918 51.1948 187.291 42.8897 178.943 40.5283C172.546 38.4455 168.579 44.4798 168.579 53.4943V246L117.425 229.519V0C139.18 4.09425 170.863 13.7776 187.898 19.6048ZM301.816 228.493C301.816 229.142 301.647 229.595 301.309 229.828C300.939 230.083 300.425 230.211 299.778 230.211H296.549V226.876H299.97C300.446 226.876 300.821 226.945 301.091 227.081C301.579 227.329 301.816 227.79 301.816 228.493ZM304.13 236.105C303.973 236.036 303.863 235.865 303.788 235.584C303.736 235.396 303.703 235.086 303.694 234.684L303.635 233.163C303.612 232.444 303.476 231.93 303.218 231.597C303.047 231.366 302.803 231.187 302.524 231.016C302.878 230.775 303.18 230.495 303.403 230.152C303.703 229.673 303.86 229.073 303.86 228.347C303.86 226.945 303.281 225.969 302.139 225.439C301.555 225.174 300.814 225.036 299.937 225.036H294.788H294.528V225.303V236.6V236.857H294.788H296.294H296.549V236.6V232.016H299.726C300.298 232.016 300.721 232.075 300.969 232.196C301.386 232.401 301.605 232.82 301.63 233.453L301.724 235.343C301.745 235.796 301.773 236.105 301.809 236.276C301.841 236.455 301.888 236.6 301.952 236.722L302.027 236.857H302.179H304.024H304.285V236.6V236.343V236.174L304.13 236.105ZM290.277 231.171C290.277 228.809 291.184 226.593 292.826 224.927C294.469 223.258 296.652 222.335 298.976 222.335C301.302 222.335 303.485 223.258 305.126 224.927C306.77 226.593 307.675 228.809 307.675 231.171C307.675 236.036 303.771 239.997 298.976 239.997C296.652 239.997 294.469 239.081 292.826 237.414C291.184 235.746 290.277 233.529 290.277 231.171ZM298.976 241.785C301.769 241.785 304.395 240.68 306.369 238.671C308.346 236.669 309.432 234.001 309.432 231.171C309.432 228.331 308.346 225.669 306.369 223.66C304.395 221.659 301.769 220.556 298.976 220.556C293.215 220.556 288.521 225.31 288.521 231.171C288.521 234.001 289.609 236.669 291.583 238.671C293.56 240.68 296.183 241.785 298.976 241.785Z" fill="var(--fill-0, white)"/>
</g>
</g>
</svg>
