<svg preserveAspectRatio="none" width="100%" height="100%" overflow="visible" style="display: block;" viewBox="0 0 286 284" fill="none" xmlns="http://www.w3.org/2000/svg">
<path id="Path 2520" d="M243.686 241.987H201.309V176.086C201.309 160.371 201.027 140.141 179.269 140.141C157.198 140.141 153.821 157.263 153.821 174.942V241.983H111.445V106.463H152.126V124.983H152.696C156.767 118.071 162.65 112.384 169.718 108.529C176.787 104.674 184.776 102.795 192.834 103.092C235.784 103.092 243.703 131.147 243.703 167.643L243.686 241.987ZM63.6305 87.9387C58.7668 87.9396 54.0119 86.5082 49.9674 83.8256C45.9229 81.1429 42.7705 77.3296 40.9084 72.8677C39.0463 68.4058 38.5583 63.4957 39.5063 58.7585C40.4543 54.0212 42.7957 49.6695 46.2343 46.2537C49.6729 42.8378 54.0542 40.5112 58.8243 39.5681C63.5945 38.625 68.539 39.1077 73.0328 40.9552C77.5266 42.8027 81.3678 45.9321 84.0707 49.9475C86.7736 53.9629 88.2168 58.6841 88.2177 63.514C88.2182 66.7209 87.5826 69.8965 86.3473 72.8596C85.112 75.8226 83.3013 78.515 81.0182 80.783C78.7351 83.0511 76.0242 84.8503 73.0409 86.0781C70.0575 87.3059 66.8599 87.9381 63.6305 87.9387ZM84.8186 241.987H42.3983V106.463H84.8186V241.987ZM264.812 0.0193494H21.1043C15.5728 -0.0426389 10.2426 2.07868 6.28533 5.91717C2.32807 9.75565 0.0675086 14.9972 0 20.4902V263.506C0.0651981 269.001 2.32443 274.246 6.28155 278.089C10.2387 281.931 15.5701 284.057 21.1043 283.998H264.812C270.357 284.067 275.703 281.948 279.676 278.106C283.649 274.263 285.923 269.012 286 263.506V20.4726C285.921 14.9688 283.645 9.72126 279.672 5.88287C275.699 2.04448 270.354 -0.0707803 264.812 0.00180839" fill="var(--fill-0, #0A66C2)"/>
</svg>
