<svg preserveAspectRatio="none" width="100%" height="100%" overflow="visible" style="display: block;" viewBox="0 0 359.469 364.319" fill="none" xmlns="http://www.w3.org/2000/svg">
<path id="Vector" d="M335.772 149.104C338.849 139.859 340.418 130.178 340.42 120.434C340.419 104.31 336.124 88.4778 327.977 74.564C311.607 46.068 281.239 28.475 248.372 28.475C241.906 28.475 235.429 29.158 229.108 30.515C220.592 20.9204 210.14 13.24 198.439 7.98009C186.738 2.72022 174.056 0.000408685 161.227 0H160.651C160.592 0.002 160.502 0.0019989 160.435 0.0019989C120.628 0.0019989 85.327 25.688 73.089 63.556C47.463 68.795 25.341 84.866 12.407 107.586C4.28522 121.584 0.00518577 137.479 0 153.663C0.00322837 176.407 8.44623 198.34 23.694 215.216C20.616 224.461 19.0463 234.142 19.045 243.886C19.0464 260.009 23.3408 275.842 31.487 289.756C47.856 318.26 78.227 335.843 111.097 335.843C117.569 335.843 124.022 335.16 130.35 333.803C138.867 343.398 149.321 351.078 161.022 356.338C172.724 361.598 185.408 364.318 198.237 364.319H198.813L199.047 364.318C238.876 364.318 274.166 338.632 286.404 300.73C312.03 295.488 334.152 279.418 347.086 256.697C355.199 242.712 359.471 226.83 359.469 210.662C359.466 187.918 351.024 165.985 335.776 149.109L335.772 149.104ZM198.837 340.501H198.743C182.806 340.496 167.374 334.905 155.132 324.701C155.859 324.31 156.578 323.903 157.287 323.48L229.827 281.579C231.637 280.549 233.142 279.057 234.189 277.257C235.237 275.456 235.788 273.411 235.789 271.328V168.991L266.45 186.695C266.776 186.858 267 187.174 267.046 187.535V272.228C267.004 309.881 236.493 340.426 198.837 340.501ZM52.148 277.852C46.1564 267.491 42.9998 255.735 42.996 243.767C42.996 239.863 43.337 235.95 44.001 232.104C44.54 232.427 45.481 233.001 46.156 233.389L118.696 275.29C120.505 276.344 122.561 276.899 124.655 276.899C126.749 276.899 128.805 276.343 130.614 275.288L219.177 224.151V259.559C219.187 259.74 219.152 259.92 219.076 260.084C218.999 260.248 218.884 260.39 218.739 260.499L145.409 302.838C135.033 308.809 123.271 311.954 111.299 311.958C99.3149 311.956 87.5418 308.804 77.1602 302.817C66.7786 296.83 58.1532 288.22 52.149 277.848L52.148 277.852ZM33.065 119.492C41.0317 105.653 53.6116 95.057 68.603 89.558C68.603 90.183 68.567 91.289 68.567 92.058V175.859L68.566 175.929C68.5664 178.01 69.1174 180.053 70.1632 181.852C71.2089 183.651 72.7121 185.141 74.52 186.171L163.084 237.301L132.423 255.005C132.272 255.105 132.098 255.165 131.918 255.182C131.737 255.198 131.556 255.169 131.389 255.098L58.052 212.723C47.6844 206.717 39.0773 198.092 33.0933 187.712C27.1093 177.332 23.9586 165.561 23.957 153.58C23.9619 141.617 27.1038 129.865 33.069 119.495L33.065 119.492ZM284.972 178.113L196.409 126.976L227.07 109.279C227.221 109.179 227.395 109.118 227.575 109.102C227.756 109.086 227.937 109.114 228.104 109.185L301.441 151.524C322.55 163.719 335.573 186.27 335.573 210.656C335.573 239.26 317.724 264.855 290.887 274.734V188.426C290.891 188.394 290.891 188.361 290.891 188.33C290.891 184.111 288.63 180.211 284.972 178.113ZM315.49 132.183C314.951 131.852 314.01 131.285 313.335 130.897L240.795 88.996C238.986 87.9418 236.93 87.3859 234.837 87.385C232.745 87.385 230.687 87.943 228.88 88.996L140.316 140.133V104.725L140.315 104.664C140.315 104.493 140.355 104.325 140.431 104.172C140.508 104.019 140.618 103.886 140.755 103.784L214.085 61.481C224.458 55.5011 236.22 52.3529 248.193 52.352C285.897 52.352 316.474 82.929 316.474 120.633C316.472 124.502 316.143 128.364 315.49 132.178V132.183ZM123.647 195.292L92.979 177.588C92.8181 177.508 92.6795 177.389 92.5755 177.243C92.4715 177.096 92.4054 176.926 92.383 176.748V92.056C92.399 54.371 122.976 23.82 160.664 23.82C176.626 23.8236 192.083 29.415 204.353 39.624C203.627 40.0172 202.908 40.4246 202.198 40.846L129.658 82.746C127.848 83.7759 126.343 85.2666 125.296 87.0666C124.249 88.8665 123.697 90.9117 123.697 92.994V93.062L123.647 195.292ZM140.302 159.382L179.747 136.6L219.191 159.367V204.917L179.747 227.684L140.302 204.917V159.382Z" fill="var(--fill-0, black)"/>
</svg>
