<svg preserveAspectRatio="none" width="100%" height="100%" overflow="visible" style="display: block;" viewBox="0 0 284.237 329.022" fill="none" xmlns="http://www.w3.org/2000/svg">
<path id="Vector" d="M234.97 37.295L166.024 95.597H234.97V37.295ZM151.062 86.004L251.993 0.654999V95.597H284.237V239.018H245.506V329.022L151.064 242.36V326.306H134.041V242.4L37.445 328.646V239.018H0V95.597H38.732V0L134.041 84.958V1.798H151.064L151.062 86.004ZM121.853 112.62C86.898 112.64 51.96 112.62 17.023 112.62V221.995H37.438V194.874L121.853 112.62ZM163.298 112.62L245.506 194.944V221.995H267.214V112.62C232.597 112.62 197.94 112.64 163.298 112.62ZM120.424 95.597L55.755 37.951V95.597H120.424ZM134.041 219.673V124.473L54.468 201.989V290.72L134.041 219.673ZM151.293 124.651V219.514L228.483 290.344C228.483 260.859 228.471 231.401 228.471 201.919L151.293 124.651Z" fill="var(--fill-0, white)"/>
</svg>
