<svg preserveAspectRatio="none" width="100%" height="100%" overflow="visible" style="display: block;" viewBox="0 0 350.995 279.706" fill="none" xmlns="http://www.w3.org/2000/svg">
<path id="Vector" d="M136.958 228.267C135.204 227.537 132.332 224.314 137.113 215.323L148.219 192.097C148.557 191.394 147.748 190.516 147.242 191.114L137.526 200.882C132.929 205.68 125.137 219.172 123.628 221.665L111.827 241.183L111.878 241.183C112.748 241.183 113.464 241.899 113.464 242.77C113.464 243.043 113.394 243.312 113.259 243.549L102.476 261.677C99.8439 266.172 104.576 269.312 105.214 268.279C122.167 240.959 132.03 243.136 132.03 243.136L137.688 230.03C137.759 229.874 137.798 229.705 137.804 229.532C137.81 229.36 137.782 229.189 137.721 229.028C137.661 228.867 137.569 228.719 137.451 228.594C137.334 228.468 137.192 228.367 137.035 228.296C137.013 228.288 136.987 228.273 136.959 228.267H136.958ZM175.497 0C78.5738 0 0.000145548 78.5781 0.000145548 175.501C-0.0482697 213.019 11.9831 249.557 34.3139 279.706C41.6783 276.532 45.763 271.777 48.6904 268.139L81.3609 226.343C82.0518 225.465 82.9521 224.774 83.9794 224.334L88.9007 222.212L142.63 154.058L150.415 147.961L166.427 125.677C166.843 125.1 167.348 124.593 167.923 124.174L174.907 119.096C175.749 118.487 176.76 118.155 177.799 118.146C178.838 118.137 179.854 118.452 180.706 119.046L189.186 125.003C193.68 128.16 197.324 132.379 199.793 137.286L233.749 196.922C234.303 198.058 235.244 198.96 236.402 199.465C243.057 202.78 247.127 203.362 255.84 212.829C259.905 217.248 277.728 237.173 302.698 268.146C306.327 273.113 311.185 277.051 316.795 279.574C339.057 249.446 351.047 212.961 350.995 175.501C350.995 78.5714 272.421 0 175.498 0H175.497ZM47.329 185.172L35.9503 181.477L28.9233 191.155V179.195L17.5438 175.501L28.9225 171.807V159.846L35.9496 169.524L47.329 165.824L40.302 175.501L47.329 185.172ZM44.6333 224.306L40.9347 235.684L37.242 224.306H25.2793L34.9533 217.275L31.2599 205.904L40.9339 212.935L50.6154 205.904L46.9145 217.275L56.596 224.306H44.6318H44.6333ZM46.9145 133.718L50.6139 145.089L40.9339 138.059L31.2599 145.089L34.9593 133.718L25.2793 126.688H37.242L40.9339 115.316L44.6333 126.688H56.5945L46.9145 133.718ZM66.1216 107.992L59.0945 98.3145L47.7151 102.008L54.7489 92.3302L47.7151 82.6584L59.0938 86.3533L66.1284 76.6748V88.6352L77.5063 92.3302L66.1284 96.0236V107.985L66.1216 107.992ZM96.0328 66.1185L92.3341 77.4897L88.6414 66.1185H76.6787L86.3527 59.0884L82.6608 47.7172L92.3333 54.7405L102.015 47.7089L98.3146 59.0944L107.995 66.126H96.0328V66.1185ZM133.723 46.9158L126.689 56.5884V44.6332L115.31 40.939L126.689 37.2373V25.2777L133.723 34.9554L145.096 31.2612L138.068 40.9398L145.096 50.61L133.723 46.9158ZM181.479 35.9532L185.178 47.3244L175.498 40.2936L165.824 47.3244L169.518 35.9532L159.844 28.9231H171.799L175.497 17.5512L179.198 28.9231H191.153L181.479 35.9532ZM224.308 44.634V56.5951L217.281 46.9158L205.902 50.6115L212.929 40.9405L205.902 31.2612L217.281 34.9554L224.308 25.2777V37.2388L235.686 40.939L224.308 44.634ZM303.668 165.822L315.046 169.524L322.072 159.844V171.805L333.452 175.501L322.074 179.194V191.154L315.047 181.484L303.667 185.178L310.7 175.501L303.667 165.821L303.668 165.822ZM258.663 77.4972L254.969 66.1192H243.008L252.681 59.0891L248.989 47.7179L258.663 54.7488L268.335 47.7179L264.65 59.0891L274.323 66.1192H262.361L258.663 77.4972ZM284.882 107.993V96.0311L273.503 92.3377L284.881 88.6502V76.6831L291.908 86.3533L303.287 82.6591L296.26 92.3369L303.287 102.016L291.909 98.3145L284.882 107.993ZM306.362 126.696L310.061 115.317L313.762 126.696H325.716L316.05 133.719L319.742 145.097L310.061 138.065L300.388 145.097L304.088 133.719L294.406 126.696H306.363H306.362ZM313.761 224.306L310.062 235.686L306.362 224.306H294.4L304.088 217.276L300.389 205.905L310.062 212.936L319.742 205.905L316.044 217.276L325.716 224.307H313.762L313.761 224.306ZM239.07 276.925C239.912 275.704 241.281 272.339 238.711 266.11L230.94 245.223C229.887 242.56 232.196 240.945 233.749 242.694C233.749 242.694 248.427 259.62 252.217 266.686L259.456 278.703C265.682 279.103 282.867 279.573 299.406 279.573C297.743 277.916 296.204 276.139 294.8 274.257C266.573 239.259 248.672 219.791 248.497 219.594C242.775 213.379 240.13 212.185 235.77 210.197C235.139 209.909 234.45 209.6 233.741 209.263V214.572C233.752 214.664 233.743 214.756 233.715 214.844C233.687 214.932 233.641 215.013 233.58 215.082C233.519 215.151 233.444 215.206 233.36 215.244C233.276 215.282 233.185 215.302 233.093 215.302C232.964 215.302 232.839 215.264 232.732 215.193C232.625 215.122 232.541 215.021 232.492 214.902L190.99 142L190.877 141.768C189.146 138.336 186.595 135.383 183.451 133.171L179.4 130.327L159.605 176C161.953 176 163.887 177.934 163.887 180.283V180.285C163.887 180.875 163.767 181.449 163.535 181.991L145.242 224.307H162.034C168.524 224.307 174.952 225.571 180.96 228.029L185.381 229.841C185.381 229.841 172.03 257.317 172.03 271.785C172.051 274.415 172.416 277.031 173.117 279.566H203.9L202.476 270.9C214.55 273.599 226.768 275.613 239.07 276.933V276.925Z" fill="var(--fill-0, white)"/>
</svg>
