<svg preserveAspectRatio="none" width="100%" height="100%" overflow="visible" style="display: block;" viewBox="0 0 28.1667 28.1667" fill="none" xmlns="http://www.w3.org/2000/svg">
<g id="Vector">
<path d="M20.75 14.0833C20.75 15.8515 20.0476 17.5471 18.7974 18.7974C17.5471 20.0476 15.8515 20.75 14.0833 20.75C12.3152 20.75 10.6195 20.0476 9.3693 18.7974C8.11905 17.5471 7.41668 15.8515 7.41668 14.0833C7.41668 12.3152 8.11905 10.6195 9.3693 9.3693C10.6195 8.11905 12.3152 7.41668 14.0833 7.41668C15.8515 7.41668 17.5471 8.11905 18.7974 9.3693C20.0476 10.6195 20.75 12.3152 20.75 14.0833ZM14.0833 0.750009C13.5807 1.19401 12.8767 2.35001 14.0833 3.41668ZM14.0833 24.75C14.586 25.194 15.2913 26.35 14.0833 27.4167ZM24.0833 4.08734C23.374 4.04334 21.9833 4.38068 22.0887 6.08068ZM5.41134 21.4167C5.45534 22.126 5.11801 23.5167 3.41668 23.4113ZM4.75401 4.08334C4.71001 4.79268 5.04734 6.18468 6.75001 6.07934ZM22.0833 21.4207C22.7927 21.378 24.1833 21.698 24.078 23.306ZM27.4167 14.0833C26.9727 13.5807 25.8167 12.8767 24.75 14.0833ZM3.41668 13.4167C2.97268 13.9193 1.81668 14.6247 0.750009 13.4167Z" fill="var(--fill-0, white)"/>
<path d="M14.0833 0.750009C13.5807 1.19401 12.8767 2.35001 14.0833 3.41668M14.0833 24.75C14.586 25.194 15.2913 26.35 14.0833 27.4167M24.0833 4.08734C23.374 4.04334 21.9833 4.38068 22.0887 6.08068M5.41134 21.4167C5.45534 22.126 5.11801 23.5167 3.41668 23.4113M4.75401 4.08334C4.71001 4.79268 5.04734 6.18468 6.75001 6.07934M22.0833 21.4207C22.7927 21.378 24.1833 21.698 24.078 23.306M27.4167 14.0833C26.9727 13.5807 25.8167 12.8767 24.75 14.0833M3.41668 13.4167C2.97268 13.9193 1.81668 14.6247 0.750009 13.4167M20.75 14.0833C20.75 15.8515 20.0476 17.5471 18.7974 18.7974C17.5471 20.0476 15.8515 20.75 14.0833 20.75C12.3152 20.75 10.6195 20.0476 9.3693 18.7974C8.11905 17.5471 7.41668 15.8515 7.41668 14.0833C7.41668 12.3152 8.11905 10.6195 9.3693 9.3693C10.6195 8.11905 12.3152 7.41668 14.0833 7.41668C15.8515 7.41668 17.5471 8.11905 18.7974 9.3693C20.0476 10.6195 20.75 12.3152 20.75 14.0833Z" stroke="var(--stroke-0, white)" stroke-width="1.5" stroke-linecap="round" stroke-linejoin="round"/>
</g>
</svg>
