<svg preserveAspectRatio="none" width="100%" height="100%" overflow="visible" style="display: block;" viewBox="0 0 216 248" fill="none" xmlns="http://www.w3.org/2000/svg">
<path id="Vector" d="M64.8 100.11C64.4297 100.11 64.1829 100.11 63.936 99.8637C55.5429 88.7674 53.4446 69.657 52.9509 62.3827C52.8274 60.9649 51.2229 60.2251 49.9886 60.9032C24.0686 75.3901 0 109.789 0 142.955C0 200.101 39.6823 248 108 248C171.998 248 216 198.683 216 143.016C216 70.2118 163.975 22.0043 117.627 0.181517C116.393 -0.434947 115.035 0.613041 115.159 1.90762C121.207 41.1764 112.937 83.774 64.7383 100.234L64.8 100.11Z" fill="var(--fill-0, white)"/>
</svg>
