<svg preserveAspectRatio="none" width="100%" height="100%" overflow="visible" style="display: block;" viewBox="0 0 510.582 510.57" fill="none" xmlns="http://www.w3.org/2000/svg">
<path id="Vector" fill-rule="evenodd" clip-rule="evenodd" d="M510.582 159.713C510.582 153.614 510.582 147.516 510.553 141.417C510.525 136.283 510.468 131.149 510.326 126.014C510.029 114.824 509.362 103.549 507.376 92.4862C505.362 81.2534 502.058 70.8007 496.867 60.589C491.761 50.5618 485.095 41.3997 477.139 33.4431C469.182 25.4865 460.006 18.8206 449.978 13.7148C439.781 8.52388 429.328 5.23346 418.11 3.20532C407.047 1.21972 395.758 0.55313 384.567 0.255291C379.433 0.113463 374.299 0.0567313 369.165 0.0283657C363.066 0 356.968 0 350.869 0H159.713C153.614 0 147.516 0 141.417 0.0283657C136.283 0.0567313 131.149 0.113463 126.014 0.255291C114.824 0.567313 103.535 1.21972 92.472 3.2195C81.2392 5.23346 70.8007 8.53806 60.6032 13.729C50.576 18.8348 41.3997 25.5007 33.4431 33.4573C25.4865 41.4139 18.8206 50.576 13.7148 60.6032C8.52388 70.8149 5.21928 81.2676 3.20532 92.5004C1.21972 103.563 0.55313 114.853 0.255291 126.029C0.113463 131.163 0.0567313 136.297 0.0283656 141.431C0 147.516 0 153.614 0 159.713V350.855C0 356.953 0 363.052 0.0283656 369.151C0.0567313 374.285 0.113463 379.419 0.255291 384.553C0.55313 395.743 1.21972 407.019 3.20532 418.081C5.21928 429.314 8.52388 439.767 13.7148 449.979C18.8206 460.006 25.4865 469.168 33.4431 477.124C41.3997 485.081 50.576 491.747 60.6032 496.853C70.8007 502.044 81.2534 505.334 92.472 507.362C103.535 509.348 114.824 510.014 126.014 510.312C131.149 510.454 136.283 510.511 141.417 510.539C147.516 510.582 153.614 510.568 159.713 510.568H350.855C356.953 510.568 363.052 510.568 369.151 510.539C374.285 510.511 379.419 510.454 384.553 510.312C395.743 510.014 407.033 509.348 418.096 507.362C429.328 505.348 439.767 502.044 449.964 496.853C459.992 491.747 469.168 485.081 477.124 477.124C485.081 469.168 491.747 460.006 496.853 449.979C502.044 439.767 505.348 429.314 507.362 418.081C509.348 407.019 510.014 395.729 510.312 384.553C510.454 379.419 510.511 374.285 510.539 369.151C510.582 363.052 510.568 356.953 510.568 350.855V159.713H510.582Z" fill="var(--fill-0, #00439C)"/>
</svg>
