<svg preserveAspectRatio="none" width="100%" height="100%" overflow="visible" style="display: block;" viewBox="0 0 269.896 311.598" fill="none" xmlns="http://www.w3.org/2000/svg">
<path id="Vector" d="M124.48 247.34C103.784 247.34 90.609 234.716 90.609 218.677C90.609 150.107 269.896 136.397 269.896 63.569C269.896 19.143 218.728 0 153.418 0C113.683 0 68.758 7.39901 27.041 20.626V107.493C88.522 62.464 156.833 43.184 200.844 43.184C228.506 43.184 247.287 50.944 247.287 64.862C247.287 122.17 0 113.081 0 236.923C0 284.401 32.456 311.598 78.123 311.598C147.193 311.598 199.43 244.098 238.509 161.818L246.425 164.663C225.833 214.952 183.254 270.087 174.941 305.527H263.861V122.17H243.338C213.519 187.308 169.836 247.34 124.478 247.34H124.48Z" fill="var(--fill-0, black)"/>
</svg>
